<svg width="29" height="28" viewBox="0 0 29 28" fill="none" xmlns="http://www.w3.org/2000/svg">
<path d="M27.7416 1.02833C27.3233 0.604967 26.8029 0.296643 26.2306 0.133143C25.6582 -0.0303561 25.0534 -0.0435029 24.4745 0.0949733L5.80542 4.02674C4.73028 4.17417 3.71767 4.6188 2.8816 5.31058C2.04554 6.00235 1.41924 6.91379 1.07323 7.9422C0.727226 8.97067 0.675256 10.0753 0.923176 11.1317C1.1711 12.1881 1.70906 13.1543 2.47648 13.9215L4.48108 15.9247C4.58957 16.0331 4.67562 16.1619 4.73428 16.3036C4.79294 16.4454 4.82308 16.5973 4.82296 16.7507V20.4468C4.82554 20.9665 4.94518 21.4789 5.17301 21.946L5.16367 21.9542L5.19401 21.9845C5.5359 22.6718 6.09431 23.2277 6.78322 23.5665L6.81355 23.5969L6.82172 23.5875C7.28887 23.8154 7.80135 23.935 8.32105 23.9375H12.0175C12.3268 23.9373 12.6236 24.0598 12.8425 24.2782L14.846 26.2815C15.3833 26.8247 16.0229 27.2562 16.7278 27.5511C17.4327 27.8461 18.189 27.9987 18.9532 28C19.59 27.9992 20.2224 27.8951 20.8259 27.692C21.8451 27.3574 22.7504 26.7447 23.4398 25.9229C24.1293 25.1012 24.5754 24.1032 24.7277 23.0415L28.6657 4.33358C28.8114 3.74981 28.8029 3.13821 28.6409 2.55876C28.4789 1.97931 28.169 1.45192 27.7416 1.02833ZM6.1333 14.2773L4.12753 12.2741C3.66048 11.8183 3.33313 11.2389 3.18391 10.6036C3.03469 9.96833 3.06979 9.30367 3.28509 8.68765C3.49382 8.05568 3.87971 7.49699 4.39683 7.07796C4.91396 6.65891 5.54057 6.39721 6.20214 6.32395L24.6857 2.43303L7.15427 19.9649V16.7507C7.15603 16.2914 7.06671 15.8364 6.89147 15.4118C6.71622 14.9872 6.45853 14.6017 6.1333 14.2773ZM22.4349 22.6425C22.3454 23.2869 22.0779 23.8936 21.6626 24.3945C21.2474 24.8954 20.7007 25.2706 20.084 25.478C19.4673 25.6855 18.8049 25.7169 18.1713 25.5688C17.5377 25.4209 16.9579 25.0991 16.497 24.6399L14.4901 22.6332C14.1661 22.3075 13.7808 22.0493 13.3564 21.8735C12.932 21.6976 12.4769 21.6077 12.0175 21.6088H8.80299L26.3368 4.08274L22.4349 22.6425Z" fill="#F14281"/>
</svg>
