<svg width="20" height="20" viewBox="0 0 20 20" fill="none" xmlns="http://www.w3.org/2000/svg">
<path d="M20 13.3335V17.5001C20 18.1631 19.7366 18.799 19.2678 19.2678C18.7989 19.7366 18.163 20 17.5 20H13.3333C12.1642 19.9988 11.016 19.6902 10.0039 19.1052C8.99172 18.5201 8.15121 17.6792 7.56667 16.6668C8.19489 16.6623 8.82098 16.593 9.435 16.4601C9.90263 17.0448 10.4958 17.5168 11.1707 17.841C11.8455 18.1653 12.5846 18.3336 13.3333 18.3334H17.5C17.721 18.3334 17.933 18.2456 18.0893 18.0893C18.2455 17.933 18.3333 17.7211 18.3333 17.5001V13.3335C18.3331 12.5846 18.1643 11.8453 17.8395 11.1704C17.5146 10.4956 17.042 9.90256 16.4567 9.43527C16.5907 8.82139 16.6611 8.19531 16.6667 7.56699C17.6791 8.15152 18.5201 8.992 19.1051 10.0041C19.6902 11.0163 19.9988 12.1645 20 13.3335ZM14.9808 8.04281C15.0588 6.9692 14.9047 5.8914 14.529 4.88264C14.1534 3.87388 13.565 2.9578 12.8038 2.19664C12.0426 1.43549 11.1265 0.847107 10.1178 0.47147C9.10897 0.0958333 8.03113 -0.0582521 6.9575 0.0196839C5.05493 0.236955 3.29744 1.1423 2.01598 2.56524C0.734522 3.98817 0.0175226 5.83051 0 7.74532V11.9452C0 14.0552 1.25583 15.0001 2.5 15.0001H7.25C9.16567 14.9836 11.0092 14.2671 12.4332 12.9856C13.8571 11.7041 14.7633 9.94611 14.9808 8.04281ZM11.625 3.37626C12.2166 3.96917 12.674 4.68223 12.9661 5.4672C13.2582 6.25217 13.3784 7.09073 13.3183 7.92615C13.1405 9.4125 12.4254 10.7826 11.3078 11.7785C10.1901 12.7744 8.74699 13.3274 7.25 13.3335H2.5C1.72667 13.3335 1.66667 12.271 1.66667 11.9452V7.74532C1.67361 6.249 2.22721 4.80681 3.22326 3.69015C4.21932 2.57349 5.58916 1.85936 7.075 1.68214C7.21333 1.67214 7.35167 1.66714 7.49 1.66714C8.25772 1.66643 9.01807 1.817 9.72757 2.11026C10.4371 2.40352 11.0818 2.83372 11.625 3.37626Z" fill="white"/>
</svg>
