<svg width="20" height="20" viewBox="0 0 20 20" fill="none" xmlns="http://www.w3.org/2000/svg">
<path d="M9.86111 0C7.91077 0 6.00423 0.58649 4.38257 1.6853C2.76092 2.78412 1.497 4.3459 0.750637 6.17316C0.0042727 8.00043 -0.19101 10.0111 0.189483 11.9509C0.569976 13.8907 1.50916 15.6725 2.88826 17.0711C4.26736 18.4696 6.02444 19.422 7.93731 19.8078C9.85017 20.1937 11.8329 19.9957 13.6348 19.2388C15.4367 18.4819 16.9768 17.2002 18.0603 15.5557C19.1439 13.9112 19.7222 11.9778 19.7222 10C19.7194 7.34871 18.6796 4.80684 16.8308 2.9321C14.9821 1.05736 12.4756 0.00286757 9.86111 0ZM9.86111 18.3333C8.23583 18.3333 6.64704 17.8446 5.29566 16.9289C3.94429 16.0132 2.89102 14.7117 2.26905 13.189C1.64708 11.6663 1.48434 9.99075 1.80142 8.37425C2.1185 6.75774 2.90115 5.27288 4.0504 4.10744C5.19965 2.94201 6.66388 2.14833 8.25794 1.82679C9.852 1.50525 11.5043 1.67027 13.0059 2.301C14.5074 2.93173 15.7908 3.99984 16.6938 5.37025C17.5968 6.74066 18.0787 8.35182 18.0787 10C18.0763 12.2094 17.2098 14.3276 15.6692 15.8899C14.1286 17.4521 12.0398 18.3309 9.86111 18.3333Z" fill="#B3B1B4"/>
<path d="M9.86111 5C9.64316 5 9.43415 5.0878 9.28004 5.24408C9.12593 5.40036 9.03935 5.61232 9.03935 5.83333V9.4375L6.2692 11.1975C6.08395 11.3149 5.95225 11.502 5.90309 11.7179C5.85393 11.9337 5.89133 12.1605 6.00706 12.3483C6.12279 12.5362 6.30737 12.6697 6.52019 12.7196C6.73302 12.7694 6.95666 12.7315 7.14191 12.6142L10.2975 10.6142C10.4167 10.5384 10.5147 10.4329 10.5822 10.3077C10.6497 10.1825 10.6844 10.0418 10.6829 9.89916V5.83333C10.6829 5.61232 10.5963 5.40036 10.4422 5.24408C10.2881 5.0878 10.0791 5 9.86111 5Z" fill="#B3B1B4"/>
</svg>
