<svg width="17" height="20" viewBox="0 0 17 20" fill="none" xmlns="http://www.w3.org/2000/svg">
<path d="M8.33333 5.00124C7.67767 5.00124 7.03673 5.19671 6.49156 5.56295C5.9464 5.92919 5.52149 6.44975 5.27058 7.05878C5.01967 7.66781 4.95402 8.33798 5.08193 8.98453C5.20984 9.63107 5.52558 10.225 5.9892 10.6911C6.45283 11.1572 7.04352 11.4747 7.68659 11.6033C8.32966 11.7319 8.99621 11.6659 9.60197 11.4136C10.2077 11.1613 10.7255 10.7341 11.0897 10.186C11.454 9.63791 11.6484 8.99349 11.6484 8.33428C11.6484 7.4503 11.2992 6.60253 10.6775 5.97746C10.0558 5.35239 9.21255 5.00124 8.33333 5.00124ZM8.33333 10.0008C8.0055 10.0008 7.68503 9.90306 7.41245 9.71994C7.13986 9.53682 6.92741 9.27655 6.80196 8.97203C6.6765 8.66751 6.64367 8.33243 6.70763 8.00916C6.77159 7.68588 6.92946 7.38894 7.16127 7.15587C7.39308 6.9228 7.68843 6.76408 8.00996 6.69978C8.33149 6.63548 8.66477 6.66848 8.96765 6.79461C9.27053 6.92075 9.5294 7.13435 9.71153 7.40841C9.89367 7.68247 9.99088 8.00467 9.99088 8.33428C9.99088 8.77627 9.81625 9.20016 9.5054 9.51269C9.19455 9.82522 8.77294 10.0008 8.33333 10.0008Z" fill="#B3B1B4"/>
<path d="M8.33333 19.9999C7.63546 20.0035 6.94688 19.839 6.32527 19.52C5.70365 19.2011 5.16708 18.737 4.76048 18.1668C1.60202 13.7863 0 10.4933 0 8.37844C0 6.15634 0.877973 4.02525 2.44078 2.45399C4.00358 0.882726 6.1232 0 8.33333 0C10.5435 0 12.6631 0.882726 14.2259 2.45399C15.7887 4.02525 16.6667 6.15634 16.6667 8.37844C16.6667 10.4933 15.0646 13.7863 11.9062 18.1668C11.4996 18.737 10.963 19.2011 10.3414 19.52C9.71978 19.839 9.03121 20.0035 8.33333 19.9999ZM8.33333 1.81901C6.6032 1.82099 4.94449 2.51289 3.72109 3.7429C2.4977 4.97292 1.80953 6.64061 1.80756 8.38011C1.80756 10.055 3.37643 13.1522 6.2241 17.101C6.46585 17.4358 6.783 17.7083 7.1496 17.8962C7.51621 18.0841 7.92185 18.182 8.33333 18.182C8.74482 18.182 9.15046 18.0841 9.51706 17.8962C9.88367 17.7083 10.2008 17.4358 10.4426 17.101C13.2902 13.1522 14.8591 10.055 14.8591 8.38011C14.8571 6.64061 14.169 4.97292 12.9456 3.7429C11.7222 2.51289 10.0635 1.82099 8.33333 1.81901Z" fill="#B3B1B4"/>
</svg>
