<svg width="17" height="18" viewBox="0 0 17 18" fill="none" xmlns="http://www.w3.org/2000/svg">
<path d="M16.9996 17.25C16.9996 17.4489 16.9249 17.6397 16.7921 17.7803C16.6593 17.921 16.4791 18 16.2913 18H0.709409C0.521565 18 0.341414 17.921 0.208588 17.7803C0.0757622 17.6397 0.0011414 17.4489 0.0011414 17.25C0.0011414 17.0511 0.0757622 16.8604 0.208588 16.7198C0.341414 16.5791 0.521565 16.5001 0.709409 16.5001H16.2913C16.4791 16.5001 16.6593 16.5791 16.7921 16.7198C16.9249 16.8604 16.9996 17.0511 16.9996 17.25ZM0.207247 6.41473C0.0546314 6.115 -0.0160733 5.77615 0.00306819 5.43623C0.0222097 5.09631 0.13044 4.76877 0.315612 4.49036C0.618226 4.02022 1.02349 3.63433 1.497 3.36543L6.80972 0.437612C7.3319 0.150104 7.9118 0 8.50035 0C9.08891 0 9.66881 0.150104 10.191 0.437612L15.503 3.36768C15.9765 3.63658 16.3818 4.02247 16.6844 4.49261C16.8696 4.77102 16.9778 5.09856 16.9969 5.43848C17.0161 5.7784 16.9454 6.11725 16.7928 6.41698C16.6284 6.74609 16.382 7.02115 16.0803 7.21222C15.7786 7.4033 15.4331 7.50307 15.0816 7.50067H14.8748V13.5003H15.583C15.7709 13.5003 15.951 13.5793 16.0839 13.7199C16.2167 13.8606 16.2913 14.0513 16.2913 14.2502C16.2913 14.4491 16.2167 14.6399 16.0839 14.7805C15.951 14.9212 15.7709 15.0002 15.583 15.0002H1.41768C1.22983 15.0002 1.04968 14.9212 0.916856 14.7805C0.78403 14.6399 0.709409 14.4491 0.709409 14.2502C0.709409 14.0513 0.78403 13.8606 0.916856 13.7199C1.04968 13.5793 1.22983 13.5003 1.41768 13.5003H2.12594V7.50067H1.91913C1.56723 7.50299 1.22149 7.40295 0.919615 7.21146C0.617739 7.01996 0.371324 6.74437 0.207247 6.41473ZM3.54248 13.5003H5.66728V7.50067H3.54248V13.5003ZM7.08382 7.50067V13.5003H9.91689V7.50067H7.08382ZM13.4582 7.50067H11.3334V13.5003H13.4582V7.50067ZM1.4623 5.71953C1.50674 5.80628 1.57287 5.87841 1.65345 5.92802C1.73403 5.97762 1.82594 6.00279 1.91913 6.00076H15.0816C15.1748 6.00279 15.2667 5.97762 15.3473 5.92802C15.4278 5.87841 15.494 5.80628 15.5384 5.71953C15.5708 5.6622 15.5864 5.59603 15.5834 5.52932C15.5804 5.46261 15.5588 5.39833 15.5214 5.34455C15.3498 5.0745 15.1192 4.85224 14.8493 4.69659L9.53726 1.76653C9.21713 1.59061 8.86174 1.49877 8.50106 1.49877C8.14039 1.49877 7.785 1.59061 7.46487 1.76653L2.15286 4.69659C1.883 4.85274 1.65249 5.07521 1.48071 5.3453C1.44324 5.39885 1.4215 5.46291 1.41823 5.52948C1.41495 5.59604 1.43028 5.66214 1.4623 5.71953Z" fill="#001A24"/>
</svg>
