<?xml version="1.0" encoding="UTF-8" standalone="no"?>
<svg
   xmlns:dc="http://purl.org/dc/elements/1.1/"
   xmlns:cc="http://creativecommons.org/ns#"
   xmlns:rdf="http://www.w3.org/1999/02/22-rdf-syntax-ns#"
   xmlns:svg="http://www.w3.org/2000/svg"
   xmlns="http://www.w3.org/2000/svg"
   xmlns:sodipodi="http://sodipodi.sourceforge.net/DTD/sodipodi-0.dtd"
   xmlns:inkscape="http://www.inkscape.org/namespaces/inkscape"
   width="65" 
   height="64"
   viewBox="0 0 135.46666 134.50143"
   version="1.1"
   id="svg8"
   inkscape:version="1.0.2-2 (e86c870879, 2021-01-15)"
   sodipodi:docname="Business-Gray.svg">
  <defs
     id="defs2" />
  <sodipodi:namedview
     id="base"
     pagecolor="#ffffff"
     bordercolor="#666666"
     borderopacity="1.0"
     inkscape:pageopacity="0.0"
     inkscape:pageshadow="2"
     inkscape:zoom="0.7"
     inkscape:cx="236.45284"
     inkscape:cy="253.82332"
     inkscape:document-units="mm"
     inkscape:current-layer="layer1"
     inkscape:document-rotation="0"
     showgrid="false"
     inkscape:window-width="1366"
     inkscape:window-height="706"
     inkscape:window-x="-8"
     inkscape:window-y="-8"
     inkscape:window-maximized="1"
     showguides="true"
     inkscape:guide-bbox="true" />
  <metadata
     id="metadata5">
    <rdf:RDF>
      <cc:Work
         rdf:about="">
        <dc:format>image/svg+xml</dc:format>
        <dc:type
           rdf:resource="http://purl.org/dc/dcmitype/StillImage" />
        <dc:title></dc:title>
      </cc:Work>
    </rdf:RDF>
  </metadata>
  <g
     inkscape:label="Capa 1"
     inkscape:groupmode="layer"
     id="layer1"
     transform="translate(281.53579,-16.939962)">
    <path
       id="path79"
       style="fill:#b3b1b4;stroke-width:0.265101;fill-opacity:1"
       d="m -274.45364,16.940569 c -3.96859,-0.04996 -7.08215,2.992677 -7.08215,6.412133 v 60.8407 60.840698 c 0,3.49765 2.47519,6.20762 6.42456,6.20762 0.57289,0.13582 26.92324,0.21926 61.83898,0.19571 l 60.8407,-0.0409 c 3.31674,0 6.36242,-2.43864 6.36242,-6.36243 V 114.14983 83.265548 c 0,-2.615731 -1.4852,-4.500131 -4.48756,-5.304609 -1.04915,-0.513313 -50.18634,-10.64655 -52.03799,-10.731417 -0.0325,-0.0015 -0.0921,-7.905922 -0.13255,-17.565538 l -0.0735,-17.562947 c 0,-2.094734 -1.6833,-4.280948 -5.3626,-5.266811 -2.21871,-0.716721 -64.45427,-10.046042 -65.9035,-9.879159 -0.12974,-0.0081 -0.25877,-0.01289 -0.38678,-0.0145 z m 0.57471,5.70744 c 2.78571,-0.0157 11.25714,1.345079 38.60329,5.477031 8.23802,1.24475 17.28002,2.608287 20.0928,3.030021 5.19483,0.778883 6.09251,1.072744 6.73936,2.205206 0.27458,0.4807 0.3407,11.453176 0.3407,56.532808 v 55.936335 l -8.54951,0.0699 -8.54951,0.0699 v -13.51395 c 0,-16.51181 0.49271,-19.58848 -4.6284,-19.58848 l -24.33855,-0.0777 c -5.87779,0 -4.70084,2.70282 -4.70089,19.52998 v 13.64287 l -7.35656,-0.0104 c -8.09932,-0.0114 -8.71852,-0.11273 -9.46027,-1.54711 -0.70604,-1.36542 -0.62243,-119.381998 0.0854,-120.542815 0.4265,-0.699417 0.0507,-1.204245 1.7221,-1.213666 z m 12.10664,21.298699 c -1.60503,0 -2.89695,1.292439 -2.89695,2.89747 0,1.605033 1.29192,2.896956 2.89695,2.896956 h 11.14046 c 1.60503,0 2.89695,-1.291923 2.89695,-2.896956 0,-1.605031 -1.29192,-2.89747 -2.89695,-2.89747 z m 28.30886,0 c -1.60503,0 -2.89695,1.292439 -2.89695,2.89747 0,1.605033 1.29192,2.896956 2.89695,2.896956 h 11.14046 c 1.60503,0 2.89747,-1.291923 2.89747,-2.896956 0,-1.605031 -1.29244,-2.89747 -2.89747,-2.89747 z m -28.30886,17.042583 c -1.60503,0 -2.89695,1.291923 -2.89695,2.896953 0,1.605034 1.29192,2.896956 2.89695,2.896956 h 11.14046 c 1.60503,0 2.89695,-1.291922 2.89695,-2.896956 0,-1.60503 -1.29192,-2.896953 -2.89695,-2.896953 z m 28.30886,0 c -1.60503,0 -2.89695,1.291923 -2.89695,2.896953 0,1.605034 1.29192,2.896956 2.89695,2.896956 h 11.14046 c 1.60503,0 2.89747,-1.291922 2.89747,-2.896956 0,-1.60503 -1.29244,-2.896953 -2.89747,-2.896953 z m 31.24569,12.069865 c 0.38661,0 8.3511,1.557477 42.76101,8.362076 6.1133,1.208914 6.96162,1.520277 7.61803,2.797542 0.25403,0.494276 0.32837,7.225726 0.33138,30.010276 0.004,32.57134 0.11376,30.58629 -1.72834,31.35597 -0.95539,0.39919 -48.86176,0.59358 -49.25547,0.19986 -0.46316,-0.46316 -0.19151,-72.725724 0.27339,-72.725724 z m -59.55455,4.782694 c -1.60503,0 -2.89695,1.292439 -2.89695,2.897473 0,1.60503 1.29192,2.896953 2.89695,2.896953 h 11.14046 c 1.60503,0 2.89695,-1.291923 2.89695,-2.896953 0,-1.605034 -1.29192,-2.897473 -2.89695,-2.897473 z m 28.30886,0 c -1.60503,0 -2.89695,1.292439 -2.89695,2.897473 0,1.60503 1.29192,2.896953 2.89695,2.896953 h 11.14046 c 1.60503,0 2.89747,-1.291923 2.89747,-2.896953 0,-1.605034 -1.29244,-2.897473 -2.89747,-2.897473 z m -28.30886,16.853075 c -1.60503,0 -2.89695,1.291923 -2.89695,2.896956 0,1.605034 1.29192,2.897469 2.89695,2.897469 h 11.14046 c 1.60503,0 2.89695,-1.292435 2.89695,-2.897469 0,-1.605033 -1.29192,-2.896956 -2.89695,-2.896956 z m 28.30886,0 c -1.60503,0 -2.89695,1.291923 -2.89695,2.896956 0,1.605034 1.29192,2.897469 2.89695,2.897469 h 11.14046 c 1.60503,0 2.89747,-1.292435 2.89747,-2.897469 0,-1.605033 -1.29244,-2.896956 -2.89747,-2.896956 z m 51.0273,0.410597 c -1.60503,0 -2.89747,1.292439 -2.89747,2.897473 0,1.605033 1.29244,2.896955 2.89747,2.896955 h 11.14046 c 1.60503,0 2.89696,-1.291922 2.89696,-2.896955 0,-1.605034 -1.29193,-2.897473 -2.89696,-2.897473 z m 0,17.042068 c -1.60503,0 -2.89747,1.29244 -2.89747,2.89747 0,1.60503 1.29244,2.89695 2.89747,2.89695 h 11.14046 c 1.60503,0 2.89696,-1.29192 2.89696,-2.89695 0,-1.60503 -1.29193,-2.89747 -2.89696,-2.89747 z m -48.3328,5.9218 v 27.89257 l -22.82147,-0.18951 v -27.53944 z m 48.3328,10.93128 c -1.60503,0 -2.89747,1.29192 -2.89747,2.89695 0,1.60503 1.29244,2.89747 2.89747,2.89747 h 11.14046 c 1.60503,0 2.89696,-1.29244 2.89696,-2.89747 0,-1.60503 -1.29193,-2.89695 -2.89696,-2.89695 z" />
  </g>
</svg>
