<svg width="65" height="64" viewBox="0 0 65 64" fill="none" xmlns="http://www.w3.org/2000/svg">
<path d="M3.36991 0.000288713C1.48153 -0.0234838 0 1.4243 0 3.05138V60.9512C0 62.6155 1.17777 63.905 3.05701 63.905C3.32961 63.9696 15.8679 64.0093 32.4819 63.9981L61.4319 63.9787C63.0101 63.9787 64.4593 62.8183 64.4593 60.9512V31.5598C64.4593 30.3151 63.7526 29.4185 62.324 29.0357C61.8248 28.7914 38.4437 23.9697 37.5627 23.9294C37.5472 23.9286 37.5188 20.1675 37.4996 15.5711L37.4646 7.21411C37.4646 6.21737 36.6636 5.17711 34.9129 4.708C33.8572 4.36696 4.24356 -0.072221 3.55397 0.0071872C3.49223 0.00333297 3.43082 0.0010548 3.36991 0.000288713ZM3.64337 2.71607C4.9689 2.7086 8.99988 3.3561 22.012 5.32221C25.9319 5.9145 30.2344 6.56332 31.5728 6.76399C34.0447 7.13461 34.4718 7.27444 34.7796 7.8133C34.9103 8.04203 34.9417 13.2631 34.9417 34.7134V61.3296L26.8055 61.3962V54.9658C26.8055 47.109 27.0399 45.645 24.6031 45.645L13.0221 45.608C10.2253 45.608 10.7853 46.8941 10.7853 54.901V61.3927L7.28479 61.3878C3.43088 61.3823 3.13625 61.3341 2.7833 60.6516C2.44734 60.0019 2.48712 3.84589 2.82393 3.29353C3.02687 2.96073 2.84807 2.72055 3.64337 2.71607ZM9.4041 12.8507C8.64038 12.8507 8.02563 13.4656 8.02563 14.2294C8.02563 14.9931 8.64038 15.6078 9.4041 15.6078H14.7051C15.4688 15.6078 16.0835 14.9931 16.0835 14.2294C16.0835 13.4656 15.4688 12.8507 14.7051 12.8507H9.4041ZM22.8743 12.8507C22.1106 12.8507 21.4959 13.4656 21.4959 14.2294C21.4959 14.9931 22.1106 15.6078 22.8743 15.6078H28.1753C28.939 15.6078 29.554 14.9931 29.554 14.2294C29.554 13.4656 28.939 12.8507 28.1753 12.8507H22.8743ZM9.4041 20.9601C8.64038 20.9601 8.02563 21.5748 8.02563 22.3385C8.02563 23.1022 8.64038 23.717 9.4041 23.717H14.7051C15.4688 23.717 16.0835 23.1022 16.0835 22.3385C16.0835 21.5748 15.4688 20.9601 14.7051 20.9601H9.4041ZM22.8743 20.9601C22.1106 20.9601 21.4959 21.5748 21.4959 22.3385C21.4959 23.1022 22.1106 23.717 22.8743 23.717H28.1753C28.939 23.717 29.554 23.1022 29.554 22.3385C29.554 21.5748 28.939 20.9601 28.1753 20.9601H22.8743ZM37.742 26.7033C37.926 26.7033 41.7157 27.4444 58.0891 30.6822C60.998 31.2575 61.4016 31.4056 61.7139 32.0134C61.8348 32.2486 61.8702 35.4516 61.8716 46.2932C61.8735 61.7917 61.9258 60.8471 61.0492 61.2134C60.5946 61.4033 37.7993 61.4958 37.6119 61.3085C37.3915 61.0881 37.5208 26.7033 37.742 26.7033ZM9.4041 28.979C8.64038 28.979 8.02563 29.594 8.02563 30.3577C8.02563 31.1215 8.64038 31.7362 9.4041 31.7362H14.7051C15.4688 31.7362 16.0835 31.1215 16.0835 30.3577C16.0835 29.594 15.4688 28.979 14.7051 28.979H9.4041ZM22.8743 28.979C22.1106 28.979 21.4959 29.594 21.4959 30.3577C21.4959 31.1215 22.1106 31.7362 22.8743 31.7362H28.1753C28.939 31.7362 29.554 31.1215 29.554 30.3577C29.554 29.594 28.939 28.979 28.1753 28.979H22.8743ZM9.4041 36.9982C8.64038 36.9982 8.02563 37.613 8.02563 38.3767C8.02563 39.1404 8.64038 39.7554 9.4041 39.7554H14.7051C15.4688 39.7554 16.0835 39.1404 16.0835 38.3767C16.0835 37.613 15.4688 36.9982 14.7051 36.9982H9.4041ZM22.8743 36.9982C22.1106 36.9982 21.4959 37.613 21.4959 38.3767C21.4959 39.1404 22.1106 39.7554 22.8743 39.7554H28.1753C28.939 39.7554 29.554 39.1404 29.554 38.3767C29.554 37.613 28.939 36.9982 28.1753 36.9982H22.8743ZM47.1547 37.1936C46.391 37.1936 45.776 37.8086 45.776 38.5723C45.776 39.3361 46.391 39.9508 47.1547 39.9508H52.4557C53.2194 39.9508 53.8342 39.3361 53.8342 38.5723C53.8342 37.8086 53.2194 37.1936 52.4557 37.1936H47.1547ZM47.1547 45.3028C46.391 45.3028 45.776 45.9178 45.776 46.6815C45.776 47.4452 46.391 48.0599 47.1547 48.0599H52.4557C53.2194 48.0599 53.8342 47.4452 53.8342 46.6815C53.8342 45.9178 53.2194 45.3028 52.4557 45.3028H47.1547ZM24.1565 48.1206V61.3927L13.2973 61.3025V48.1984L24.1565 48.1206ZM47.1547 53.322C46.391 53.322 45.776 53.9367 45.776 54.7005C45.776 55.4642 46.391 56.0792 47.1547 56.0792H52.4557C53.2194 56.0792 53.8342 55.4642 53.8342 54.7005C53.8342 53.9367 53.2194 53.322 52.4557 53.322H47.1547Z" fill="white"/>
</svg>
