<svg width="62" height="58" viewBox="0 0 62 58" fill="none" xmlns="http://www.w3.org/2000/svg">
<path d="M35.9206 0C22.5749 0 16.7846 17.6205 27.6424 25.1914C28.5165 25.8009 28.5801 25.7353 26.6393 26.2276C25.7633 26.4498 24.8161 26.7509 24.5346 26.8964C24.0857 27.1286 22.9253 27.161 15.0903 27.161C5.03843 27.161 4.62563 27.2395 3.745 28.1201C2.83373 29.0314 2.76315 29.1119 3.76581 40.0402C4.25527 45.3748 4.72469 50.0193 4.80889 50.361C5.00424 51.1536 5.00069 51.156 3.66037 51.156C-0.343278 51.156 -1.44239 56.4156 2.2837 57.7439V57.7442C2.78782 57.9239 4.36488 57.9751 9.55856 57.9808L16.1897 57.9883C18.1072 57.9883 17.8385 55.6554 16.1897 55.6554H9.57157C3.33472 55.6554 2.34423 55.6822 2.34423 54.518C2.34423 53.2027 2.07879 53.3226 30.8094 53.3226C59.6462 53.3226 59.3324 53.2187 59.3324 54.46C59.3324 55.7414 58.7575 55.6554 46.6348 55.6554H34.4889C33.0761 55.6554 32.9045 57.9883 34.4889 57.9883L46.5356 57.9869C59.4409 57.986 59.4434 57.986 60.4285 57.1209C62.8987 54.952 61.5107 51.3127 58.163 51.1813L56.6907 51.1237L56.6262 44.8493C56.5672 39.1028 56.5324 38.4692 56.2116 37.3125C54.6604 31.719 50.551 27.5844 45.1918 26.2249C43.2621 25.7354 43.325 25.8006 44.1988 25.1913C55.0627 17.6161 49.2738 0 35.9206 0ZM36.0814 2.32927C38.9088 2.36228 41.7746 3.4267 44.0911 5.74327C50.3203 11.9725 47.7928 22.2918 39.3353 25.1608C31.8154 27.7117 23.71 21.2966 24.2313 13.2069C24.6623 6.51882 30.2919 2.26167 36.0814 2.32927ZM38.314 27.9942H40.7149C46.4013 27.9942 50.6765 30.5068 53.0554 35.2469C54.2442 37.6157 54.3335 38.304 54.3335 45.1052V51.156H51.7783C48.9735 51.156 48.9476 51.1495 49.1916 50.5139C49.2847 50.2713 49.4663 49.4356 49.5949 48.6566C50.0569 45.8565 50.2868 45.9904 45.0177 45.9904H40.8675L40.7676 45.1989C40.7127 44.7636 40.3641 41.1206 39.9927 37.1033C39.3048 29.6614 39.2502 29.3089 38.6544 28.4723L38.314 27.9942ZM21.1086 29.4324C28.8364 29.4299 36.5706 29.5606 36.8371 29.8271C37.0204 30.0104 37.1704 30.3078 37.1704 30.4878C37.1704 30.6678 37.5828 35.2378 38.0868 40.6432C38.5909 46.0487 39.0033 50.6254 39.0033 50.8137V51.156L23.7148 51.1495C7.68328 51.1427 7.79165 51.1473 7.19579 50.4293C6.73411 49.873 5.04021 30.2545 5.41783 29.8372C5.65918 29.5705 13.3807 29.4348 21.1086 29.4324ZM47.3811 48.1492L47.2737 48.9335C47.1496 49.8389 46.8486 50.3636 46.2153 50.7788C45.8582 51.013 45.3194 51.0844 43.5642 51.1303L41.3612 51.1883L41.2672 50.4638C41.2153 50.0655 41.1533 49.4022 41.1295 48.9898L41.0862 48.24L47.3811 48.1492ZM23.6403 55.6492C22.9891 55.6492 22.4647 56.1733 22.4647 56.8245C22.4647 57.4756 22.9891 58 23.6403 58H26.253C26.9042 58 27.4282 57.4756 27.4282 56.8245C27.4282 56.1733 26.9042 55.6492 26.253 55.6492H23.6403Z" fill="#B3B1B4"/>
</svg>
