<?xml version="1.0" encoding="UTF-8" standalone="no"?>
<svg
   xmlns:dc="http://purl.org/dc/elements/1.1/"
   xmlns:cc="http://creativecommons.org/ns#"
   xmlns:rdf="http://www.w3.org/1999/02/22-rdf-syntax-ns#"
   xmlns:svg="http://www.w3.org/2000/svg"
   xmlns="http://www.w3.org/2000/svg"
   xmlns:sodipodi="http://sodipodi.sourceforge.net/DTD/sodipodi-0.dtd"
   xmlns:inkscape="http://www.inkscape.org/namespaces/inkscape"
   width="65"
   height="64"
   viewBox="0 0 135.46666 127.37268"
   version="1.1"
   id="svg8"
   inkscape:version="1.0.2-2 (e86c870879, 2021-01-15)"
   sodipodi:docname="Freelancer.svg">
  <defs
     id="defs2" />
  <sodipodi:namedview
     id="base"
     pagecolor="#ffffff"
     bordercolor="#666666"
     borderopacity="1.0"
     inkscape:pageopacity="0.0"
     inkscape:pageshadow="2"
     inkscape:zoom="0.98994949"
     inkscape:cx="337.89722"
     inkscape:cy="249.20168"
     inkscape:document-units="mm"
     inkscape:current-layer="layer1"
     inkscape:document-rotation="0"
     showgrid="false"
     inkscape:window-width="1366"
     inkscape:window-height="706"
     inkscape:window-x="-8"
     inkscape:window-y="-8"
     inkscape:window-maximized="1"
     showguides="true"
     inkscape:guide-bbox="true" />
  <metadata
     id="metadata5">
    <rdf:RDF>
      <cc:Work
         rdf:about="">
        <dc:format>image/svg+xml</dc:format>
        <dc:type
           rdf:resource="http://purl.org/dc/dcmitype/StillImage" />
        <dc:title />
      </cc:Work>
    </rdf:RDF>
  </metadata>
  <g
     inkscape:label="Capa 1"
     inkscape:groupmode="layer"
     id="layer1"
     transform="translate(249.61478,-28.316865)">
    <path
       id="rect169"
       style="fill:#ffffff;stroke:none;stroke-width:0.300148"
       d="m -170.73032,28.317045 c -29.30819,0 -42.02422,38.695896 -18.17963,55.322233 1.91967,1.338558 2.05921,1.194528 -2.20277,2.275671 -1.92381,0.488013 -4.00391,1.149075 -4.6221,1.46875 -0.98586,0.509809 -3.53423,0.581068 -20.74048,0.581068 -22.0747,0 -22.98124,0.172352 -24.91516,2.106281 -2.00122,2.001244 -2.15622,2.177995 0.0457,26.177362 1.07489,11.71531 2.10576,21.91487 2.29068,22.66522 0.429,1.74067 0.42119,1.74606 -2.52225,1.74606 -8.79232,0 -11.20605,11.5503 -3.02327,14.46737 v 7.2e-4 c 1.10709,0.39467 4.57044,0.50715 15.97615,0.5196 l 14.56243,0.0164 c 4.21103,0 3.62107,-5.12311 0,-5.12311 h -14.53384 c -13.69662,0 -15.8718,0.0587 -15.8718,-2.49795 0,-2.88836 -0.58294,-2.62517 62.51161,-2.62517 63.32801,0 62.63882,-0.22818 62.63882,2.49795 0,2.81391 -1.26242,2.62517 -27.88482,2.62517 h -26.67337 c -3.10277,0 -3.47946,5.12311 0,5.12311 l 26.45538,-0.003 c 28.3411,-0.002 28.34666,-0.002 30.50999,-1.90187 5.42477,-4.763 2.37646,-12.75513 -4.97517,-13.04366 l -3.23339,-0.1265 -0.14152,-13.7791 c -0.12972,-12.61981 -0.20606,-14.01131 -0.91055,-16.5515 -3.40672,-12.283611 -12.43126,-21.363601 -24.20044,-24.349101 -4.23763,-1.074965 -4.09967,-0.931836 -2.18062,-2.269951 23.85792,-16.635639 11.14497,-55.322233 -18.17963,-55.322233 z m 0.35307,5.115256 c 6.2092,0.0725 12.50263,2.410054 17.58999,7.497418 13.67986,13.679862 8.12919,36.341862 -10.44421,42.642373 -16.51416,5.601975 -34.31432,-8.486048 -33.16947,-26.251686 0.9465,-14.687525 13.30961,-24.036553 26.02369,-23.888105 z m 4.90298,56.36215 h 5.2725 c 12.4878,0 21.87649,5.517843 27.10077,15.927549 2.61073,5.20205 2.80671,6.71357 2.80671,21.6496 v 13.28809 h -5.61127 c -6.15954,0 -6.2164,-0.0143 -5.6806,-1.41015 0.20452,-0.53279 0.60324,-2.36815 0.88554,-4.07891 1.01463,-6.14908 1.51952,-5.85499 -10.05183,-5.85499 h -9.11412 l -0.21942,-1.7382 c -0.12046,-0.95602 -0.8862,-8.95638 -1.70175,-17.77867 -1.51073,-16.342951 -1.63064,-17.117076 -2.93893,-18.954394 z m -37.78441,3.158351 c 16.97094,-0.0054 33.95572,0.281654 34.54101,0.866956 0.40253,0.40253 0.73188,1.055512 0.73188,1.450881 0,0.395366 0.9057,10.431321 2.01265,22.302141 1.10697,11.87083 2.01265,21.9215 2.01265,22.33502 v 0.75189 l -33.57471,-0.0143 c -35.2065,-0.015 -34.96851,-0.005 -36.27707,-1.58168 -1.01387,-1.22163 -4.7338,-44.305463 -3.90452,-45.221795 0.53001,-0.58566 17.48716,-0.883683 34.45811,-0.889113 z m 57.69653,41.103578 -0.23585,1.72248 c -0.27254,1.98835 -0.93351,3.14046 -2.32428,4.05247 -0.78424,0.51428 -1.96764,0.67093 -5.82211,0.77189 l -4.83795,0.12722 -0.20655,-1.59097 c -0.11384,-0.87476 -0.25004,-2.33127 -0.30233,-3.23696 l -0.095,-1.64672 6.91206,-0.10006 z m -52.13672,16.47074 c -1.42996,0 -2.58157,1.15089 -2.58157,2.58086 0,1.42996 1.15161,2.58157 2.58157,2.58157 h 5.73778 c 1.42996,0 2.58085,-1.15161 2.58085,-2.58157 0,-1.42997 -1.15089,-2.58086 -2.58085,-2.58086 z" />
  </g>
</svg>
