<svg width="18" height="18" viewBox="0 0 18 18" fill="none" xmlns="http://www.w3.org/2000/svg">
<path d="M15.3372 15.3379H12.67V11.1608C12.67 10.1647 12.6522 8.88292 11.2827 8.88292C9.89366 8.88292 9.68078 9.96777 9.68078 11.089V15.3379H7.01444V6.74782H9.57522V7.92137H9.6107C10.1331 7.02901 11.1035 6.4959 12.1369 6.53404C14.8405 6.53404 15.3381 8.31256 15.3381 10.6251L15.3372 15.3379ZM4.00483 5.57338C3.14976 5.57338 2.457 4.88061 2.457 4.0255C2.457 3.1704 3.14976 2.47762 4.00483 2.47762C4.8599 2.47762 5.55265 3.1704 5.55265 4.0255C5.55265 4.88061 4.8599 5.57338 4.00483 5.57338ZM5.338 15.3379H2.66811V6.74782H5.338V15.3379ZM16.6668 0.0010082H1.32785C0.603164 -0.00697514 0.00887005 0.574035 0 1.29875V16.7013C0.00887005 17.4269 0.603164 18.0079 1.32785 17.9999H16.6668C17.3933 18.0088 17.9902 17.4278 18 16.7013V1.29786C17.9894 0.571374 17.3924 -0.0096363 16.6668 0.000121121" fill="#001A24"/>
</svg>
