<svg width="18" height="16" viewBox="0 0 18 16" fill="none" xmlns="http://www.w3.org/2000/svg">
<path d="M14.25 0H3.75C2.7558 0.00115481 1.80267 0.384641 1.09966 1.06634C0.396661 1.74804 0.00119089 2.67229 0 3.63636V12.3636C0.00119089 13.3277 0.396661 14.252 1.09966 14.9337C1.80267 15.6154 2.7558 15.9988 3.75 16H14.25C15.2442 15.9988 16.1973 15.6154 16.9003 14.9337C17.6033 14.252 17.9988 13.3277 18 12.3636V3.63636C17.9988 2.67229 17.6033 1.74804 16.9003 1.06634C16.1973 0.384641 15.2442 0.00115481 14.25 0ZM3.75 1.45455H14.25C14.6991 1.4554 15.1376 1.58656 15.5092 1.83113C15.8808 2.0757 16.1684 2.42251 16.335 2.82691L10.5915 8.39709C10.1688 8.80532 9.59656 9.03452 9 9.03452C8.40344 9.03452 7.83118 8.80532 7.4085 8.39709L1.665 2.82691C1.83161 2.42251 2.11921 2.0757 2.49079 1.83113C2.86236 1.58656 3.30091 1.4554 3.75 1.45455ZM14.25 14.5455H3.75C3.15326 14.5455 2.58097 14.3156 2.15901 13.9064C1.73705 13.4972 1.5 12.9423 1.5 12.3636V4.72727L6.348 9.42546C7.05197 10.1064 8.00569 10.4888 9 10.4888C9.99431 10.4888 10.948 10.1064 11.652 9.42546L16.5 4.72727V12.3636C16.5 12.9423 16.2629 13.4972 15.841 13.9064C15.419 14.3156 14.8467 14.5455 14.25 14.5455Z" fill="#001A24"/>
</svg>
