<svg width="15" height="18" viewBox="0 0 15 18" fill="none" xmlns="http://www.w3.org/2000/svg">
<path d="M7.5 4.50111C6.9099 4.50111 6.33305 4.67704 5.84241 5.00666C5.35176 5.33628 4.96934 5.80477 4.74352 6.3529C4.5177 6.90103 4.45862 7.50418 4.57374 8.08607C4.68886 8.66797 4.97302 9.20247 5.39028 9.62199C5.80755 10.0415 6.33917 10.3272 6.91793 10.443C7.49669 10.5587 8.09659 10.4993 8.64177 10.2723C9.18695 10.0452 9.65292 9.66073 9.98076 9.16742C10.3086 8.67412 10.4836 8.09415 10.4836 7.50085C10.4836 6.70527 10.1692 5.94228 9.60972 5.37972C9.05019 4.81715 8.2913 4.50111 7.5 4.50111ZM7.5 9.00072C7.20495 9.00072 6.91653 8.91276 6.6712 8.74795C6.42588 8.58314 6.23467 8.34889 6.12176 8.07483C6.00885 7.80076 5.97931 7.49919 6.03687 7.20824C6.09443 6.9173 6.23651 6.65005 6.44514 6.44029C6.65377 6.23052 6.91959 6.08767 7.20896 6.0298C7.49834 5.97193 7.7983 6.00163 8.07088 6.11515C8.34347 6.22867 8.57646 6.42092 8.74038 6.66757C8.9043 6.91422 8.99179 7.20421 8.99179 7.50085C8.99179 7.89864 8.83462 8.28014 8.55486 8.56142C8.27509 8.8427 7.89565 9.00072 7.5 9.00072Z" fill="#001A24"/>
<path d="M7.5 17.9999C6.87191 18.0032 6.2522 17.8551 5.69274 17.568C5.13328 17.281 4.65037 16.8633 4.28444 16.3501C1.44182 12.4077 0 9.44394 0 7.5406C0 5.54071 0.790176 3.62273 2.1967 2.20859C3.60322 0.794454 5.51088 0 7.5 0C9.48912 0 11.3968 0.794454 12.8033 2.20859C14.2098 3.62273 15 5.54071 15 7.5406C15 9.44394 13.5582 12.4077 10.7156 16.3501C10.3496 16.8633 9.86672 17.281 9.30726 17.568C8.7478 17.8551 8.12809 18.0032 7.5 17.9999ZM7.5 1.63711C5.94288 1.6389 4.45004 2.2616 3.34898 3.36861C2.24793 4.47563 1.62858 5.97655 1.6268 7.5421C1.6268 9.04947 3.03879 11.837 5.60169 15.3909C5.81926 15.6922 6.1047 15.9375 6.43464 16.1066C6.76459 16.2757 7.12966 16.3638 7.5 16.3638C7.87034 16.3638 8.23541 16.2757 8.56536 16.1066C8.8953 15.9375 9.18073 15.6922 9.39831 15.3909C11.9612 11.837 13.3732 9.04947 13.3732 7.5421C13.3714 5.97655 12.7521 4.47563 11.651 3.36861C10.55 2.2616 9.05712 1.6389 7.5 1.63711Z" fill="#001A24"/>
</svg>
