<svg width="43" height="64" viewBox="0 0 43 64" fill="none" xmlns="http://www.w3.org/2000/svg">
<path d="M20.8288 0.000502241C14.0051 -0.0525439 7.14555 4.09674 5.45536 12.2944C4.92207 14.8809 5.04308 15.9962 5.8936 16.3365L6.38851 16.5345L6.39059 20.9382C6.3929 25.6074 6.48294 27.0157 6.87632 28.5494C7.72174 31.8453 9.43586 34.4789 12.1967 36.7226L12.7864 37.2017L12.7166 40.5039L10.3983 40.5732C7.22473 40.668 6.47204 40.911 6.47204 41.8408C6.47204 42.4573 6.91695 42.7458 7.70393 42.64C9.67639 42.3746 10.2345 42.3321 11.7142 42.333L13.343 42.3339L16.7124 44.6392L17.3133 46.4561C17.9179 48.2837 18.1778 48.7116 18.6826 48.7116C18.984 48.7116 19.0718 48.0228 17.8103 55.5408L16.717 62.0568L9.52113 62.1233V58.6671C9.52113 55.0039 9.49208 54.8044 8.92664 54.5895C7.80932 54.1647 7.64152 54.7065 7.64152 58.7419V62.1194H1.86159L1.90702 55.5095C1.94793 49.5769 1.97558 48.829 2.17685 48.2104C2.6339 46.8058 3.55586 45.3014 4.35313 44.6593C5.32321 43.8782 4.93442 42.4684 3.82564 42.7467C2.97625 42.9599 1.22185 45.3506 0.608137 47.1311C0.0797346 48.6641 0.00233029 49.8873 0.000109817 56.7439C-0.0021579 63.2288 0.0259752 63.6023 0.537009 63.8492C0.948039 64.0477 41.598 64.0516 42.0336 63.8529C42.6051 63.5926 42.6255 63.2892 42.5728 55.854C42.5176 48.0559 42.5175 48.0525 41.538 46.0439C39.7974 42.4742 36.7989 40.718 32.2017 40.5756L29.8836 40.5038L29.8139 37.2016L30.4033 36.7225C33.3602 34.3195 35.1361 31.4447 35.9242 27.7852C36.467 25.2647 36.2738 13.7345 35.6498 11.4026C33.6175 3.80877 27.239 0.0503329 20.8288 0.000502241ZM20.6735 1.72225C27.2568 1.72225 33.3152 6.91259 34.1593 13.2759L34.2465 13.9321L33.647 13.4044C31.7933 11.7727 30.0085 11.7424 25.8112 13.2709C21.7676 14.7434 19.8386 15.3667 18.2928 15.7007C15.0585 16.3995 11.3362 16.2238 8.33076 15.2301L7.07776 14.8157L7.11286 14.0012C7.39292 7.50529 13.7796 1.72225 20.6735 1.72225ZM30.5873 14.0813C32.4725 14.0726 33.1602 15.2361 34.0274 17.7859C34.4147 18.9247 34.4887 25.0992 34.1391 27.1041C33.1987 32.497 29.0462 36.7218 23.687 37.7384C16.6 39.0828 9.71092 34.2712 8.46108 27.1041C8.25546 25.925 8.16837 17.2565 8.36219 17.2618C8.41388 17.2632 9.13278 17.406 9.95981 17.5792C14.0534 18.4361 18.4337 17.962 23.3676 16.1281C26.9304 14.8039 29.1211 14.0881 30.5873 14.0813ZM14.7832 38.3563C14.8091 38.3525 14.8404 38.3624 14.8782 38.3787C16.5327 39.0935 18.1681 39.5485 19.8278 39.7556L20.4229 39.83H22.177L22.7722 39.7556C24.4318 39.5485 26.0673 39.0935 27.7218 38.3787C27.9231 38.2918 27.9411 38.3959 27.9388 39.6446L27.9365 41.005L26.4614 41.976H26.4612C25.8259 42.3942 25.2529 42.7469 25.0003 42.8791L24.8452 42.9963C22.5592 41.972 20.4657 42.1614 19.1407 42.4812C19.0655 42.5059 19.0033 42.5268 18.9189 42.5546C18.5031 42.6917 18.1411 42.8069 17.9109 42.877C17.7733 42.9354 17.6918 42.9754 17.6918 42.9754L17.6863 42.9412C17.6827 42.9417 17.6671 42.9465 17.6656 42.9465C17.6314 42.9462 16.9419 42.5093 16.1336 41.9755L14.664 41.005L14.6615 39.6446C14.6595 38.63 14.6709 38.371 14.7832 38.3563ZM29.257 42.3137L31.5127 42.3681C35.8031 42.4716 38.3086 43.7719 39.7523 46.644C40.6785 48.4866 40.6447 48.1691 40.6932 55.5093L40.7368 62.1191H34.9585V58.7417C34.9585 54.7063 34.7909 54.1644 33.6736 54.5892C33.1082 54.8042 33.0789 55.0038 33.0789 58.6651V62.1191H29.5037C26.7542 62.1191 25.9169 62.0831 25.8778 61.9627C25.8297 61.8147 23.6808 48.918 23.6808 48.7774C23.6808 48.7411 23.7874 48.7113 23.9176 48.7113C24.4224 48.7113 24.6821 48.2835 25.2867 46.4559L25.8878 44.6389L29.257 42.3137ZM21.3001 43.7156L22.5721 44.144C23.2718 44.3796 23.8633 44.5915 23.8866 44.6148C23.91 44.6382 23.7696 45.1324 23.5746 45.7132L23.2199 46.7691L21.3175 46.8037C19.8639 46.8302 19.4011 46.8004 19.356 46.6784C19.0617 45.8812 18.6779 44.6505 18.7127 44.6157C18.7366 44.5918 19.3284 44.3796 20.0281 44.144L21.3001 43.7156ZM21.3001 48.7113C21.5758 48.7113 21.8012 48.7416 21.8012 48.7785C21.8012 48.8155 22.2807 51.7174 22.8665 55.2273C23.4523 58.7372 23.9316 61.7239 23.9316 61.8642C23.9316 62.1127 23.8635 62.1191 21.3001 62.1191C18.7367 62.1191 18.6686 62.1128 18.6686 61.8642C18.6686 61.7239 19.1479 58.7372 19.7337 55.2273C20.3195 51.7174 20.7988 48.8155 20.7988 48.7785C20.7988 48.7416 21.0244 48.7113 21.3001 48.7113Z" fill="#B3B1B4"/>
</svg>
