<?xml version="1.0" encoding="UTF-8" standalone="no"?>
<svg
   xmlns:dc="http://purl.org/dc/elements/1.1/"
   xmlns:cc="http://creativecommons.org/ns#"
   xmlns:rdf="http://www.w3.org/1999/02/22-rdf-syntax-ns#"
   xmlns:svg="http://www.w3.org/2000/svg"
   xmlns="http://www.w3.org/2000/svg"
   xmlns:sodipodi="http://sodipodi.sourceforge.net/DTD/sodipodi-0.dtd"
   xmlns:inkscape="http://www.inkscape.org/namespaces/inkscape"
   width="65"
   height="64"
   viewBox="0 0 90.152908 135.46675"
   version="1.1"
   id="svg91"
   inkscape:version="1.0.2-2 (e86c870879, 2021-01-15)"
   sodipodi:docname="p-user.svg">
  <defs
     id="defs85" />
  <sodipodi:namedview
     id="base"
     pagecolor="#ffffff"
     bordercolor="#666666"
     borderopacity="1.0"
     inkscape:pageopacity="0.0"
     inkscape:pageshadow="2"
     inkscape:zoom="0.35"
     inkscape:cx="166.994"
     inkscape:cy="192.39624"
     inkscape:document-units="mm"
     inkscape:current-layer="layer1"
     inkscape:document-rotation="0"
     showgrid="false"
     inkscape:window-width="1366"
     inkscape:window-height="706"
     inkscape:window-x="-8"
     inkscape:window-y="-8"
     inkscape:window-maximized="1" />
  <metadata
     id="metadata88">
    <rdf:RDF>
      <cc:Work
         rdf:about="">
        <dc:format>image/svg+xml</dc:format>
        <dc:type
           rdf:resource="http://purl.org/dc/dcmitype/StillImage" />
        <dc:title />
      </cc:Work>
    </rdf:RDF>
  </metadata>
  <g
     inkscape:label="Capa 1"
     inkscape:groupmode="layer"
     id="layer1"
     transform="translate(-61.649505,-97.261827)">
    <path
       id="path65"
       style="fill:#ffffff;stroke-width:0.265235"
       d="m 105.73716,97.26289 c -14.443529,-0.112281 -28.962907,8.67036 -32.540481,26.02199 -1.128799,5.4748 -0.872655,7.83549 0.927605,8.55582 l 1.047563,0.41912 0.0044,9.32122 c 0.0049,9.88316 0.195477,12.86398 1.028133,16.11022 1.789471,6.97651 5.417679,12.55084 11.261416,17.30007 l 1.24814,1.01405 -0.07382,3.49479 -0.07382,3.49479 -4.90708,0.14666 c -6.717368,0.20067 -8.310563,0.71519 -8.310563,2.68327 0,1.30493 0.941717,1.91561 2.60749,1.69154 4.175042,-0.56163 5.356468,-0.6517 8.488316,-0.64981 l 3.447681,0.002 3.566177,2.43995 3.565697,2.43944 1.271936,3.84593 c 1.279675,3.86838 1.82997,4.774 2.8984,4.774 0.6379,0 0.82381,-1.45785 -1.846468,14.45511 l -2.314156,13.79217 -7.615588,0.0704 -7.61559,0.0704 v -7.31545 c 0,-7.75385 -0.06149,-8.17605 -1.258336,-8.6311 -2.364988,-0.89916 -2.720166,0.24781 -2.720166,8.78942 v 7.14887 h -6.116837 -6.117336 l 0.09616,-13.99079 c 0.0866,-12.55735 0.145111,-14.14044 0.571135,-15.44974 0.967415,-2.97317 2.918912,-6.15755 4.606457,-7.51651 2.053337,-1.6535 1.230399,-4.63748 -1.116527,-4.04843 -1.797868,0.45123 -5.511336,5.51166 -6.810369,9.28042 -1.118451,3.24484 -1.282291,5.83383 -1.286991,20.34708 -0.0048,13.72616 0.05475,14.51674 1.136437,15.03935 0.870014,0.42025 86.912315,0.42843 87.834485,0.008 1.2095,-0.55108 1.25267,-1.19334 1.14129,-16.93098 -0.11681,-16.50597 -0.11718,-16.51324 -2.19031,-20.76475 -3.6844,-7.55586 -10.03125,-11.27327 -19.76188,-11.57468 l -4.90659,-0.152 -0.0738,-3.49479 -0.0739,-3.49478 1.24766,-1.01406 c 6.2588,-5.08633 10.01783,-11.1714 11.68587,-18.91731 1.1489,-5.33514 0.74008,-29.74051 -0.58085,-34.6764 -4.30159,-16.07367 -17.80285,-24.028767 -31.37101,-24.134242 z m -0.32879,3.64438 c 13.93466,0 26.75825,10.98621 28.54498,24.45525 l 0.18455,1.38898 -1.26903,-1.11701 c -3.9237,-3.45378 -7.70145,-3.51791 -16.58567,-0.28265 -8.55886,3.11678 -12.64198,4.4361 -15.91401,5.1431 -6.845791,1.47922 -14.724828,1.10725 -21.086258,-0.99608 l -2.652171,-0.8771 0.0743,-1.72407 c 0.592792,-13.74967 14.111319,-25.99042 28.703309,-25.99042 z m 20.98427,26.15991 c 3.99025,-0.0184 5.44582,2.44443 7.28146,7.84142 0.81985,2.41043 0.97654,15.47984 0.23651,19.7235 -1.99059,11.41491 -10.78009,20.3574 -22.12362,22.50924 -15.000819,2.84561 -29.582722,-7.33891 -32.228203,-22.50924 -0.435224,-2.49576 -0.619582,-20.84402 -0.209319,-20.83275 0.109402,0.003 1.631086,0.30521 3.38163,0.67167 8.664651,1.81389 17.936422,0.81044 28.379852,-3.0713 7.54118,-2.80299 12.17816,-4.31819 15.28169,-4.33254 z m -33.45206,51.38204 c 0.05485,-0.008 0.121177,0.0131 0.201063,0.0476 3.502017,1.51286 6.963737,2.47595 10.476587,2.91442 l 1.2598,0.15735 h 3.71285 l 1.2598,-0.15735 c 3.51285,-0.43847 6.97458,-1.40156 10.47658,-2.91442 0.42601,-0.18404 0.46414,0.0363 0.45944,2.67936 l -0.005,2.87946 -3.12229,2.05531 h -4.9e-4 c -1.34459,0.88518 -2.55738,1.6317 -3.09219,1.91154 l -0.3283,0.24818 c -4.83858,-2.16809 -9.26993,-1.7673 -12.07441,-1.0903 -0.15924,0.0523 -0.29092,0.0965 -0.46963,0.15541 -0.87992,0.29019 -1.64625,0.53394 -2.133486,0.68234 -0.291255,0.1236 -0.463803,0.20836 -0.463803,0.20836 l -0.01165,-0.0724 c -0.0075,9.4e-4 -0.04051,0.0112 -0.0437,0.0112 -0.07255,-7.6e-4 -1.531836,-0.92552 -3.242728,-2.05531 l -3.110634,-2.05433 -0.0054,-2.87947 c -0.0043,-2.14761 0.01972,-2.69572 0.257396,-2.72695 z m 30.63622,8.37661 4.77449,0.11509 c 9.08146,0.21905 14.38461,2.97132 17.44043,9.05071 1.96049,3.90019 1.88911,3.22809 1.99168,18.76482 l 0.0923,13.9908 h -6.1154 -6.11538 v -7.14887 c 0,-8.54161 -0.35469,-9.68858 -2.71968,-8.78941 -1.1968,0.455 -1.25884,0.87762 -1.25884,8.62721 v 7.31107 h -7.5675 c -5.81969,0 -7.59195,-0.0762 -7.67483,-0.33122 -0.10175,-0.31307 -4.65018,-27.6112 -4.65018,-27.90877 0,-0.0769 0.22561,-0.13986 0.5012,-0.13986 1.06846,0 1.61824,-0.90563 2.89792,-4.77401 l 1.27242,-3.84593 3.56569,-2.46081 z m -16.8421,2.96736 2.69248,0.90671 c 1.48088,0.49873 2.7329,0.94713 2.78232,0.99658 0.0494,0.0494 -0.24763,1.09563 -0.66049,2.32484 l -0.75082,2.235 -4.02659,0.0733 c -3.07691,0.056 -4.05637,-0.007 -4.15187,-0.26517 -0.62305,-1.6874 -1.43538,-4.29248 -1.36179,-4.36606 0.0506,-0.0506 1.30338,-0.49979 2.78427,-0.99852 z m 0,10.57421 c 0.58351,0 1.06067,0.0641 1.06067,0.14229 0,0.0782 1.01494,6.22054 2.2549,13.64989 1.23997,7.42933 2.25443,13.75112 2.25443,14.04811 0,0.52598 -0.14423,0.53956 -5.57,0.53956 -5.42579,0 -5.57001,-0.0135 -5.57001,-0.53956 0,-0.29699 1.01446,-6.61878 2.25442,-14.04811 1.23997,-7.42935 2.25443,-13.57169 2.25443,-13.64989 0,-0.0782 0.47764,-0.14229 1.06116,-0.14229 z" />
  </g>
</svg>
