<svg width="17" height="17" viewBox="0 0 17 17" fill="none" xmlns="http://www.w3.org/2000/svg">
<path d="M9.19563 0.710632C9.19563 0.522461 9.27038 0.341997 9.40343 0.20894C9.53649 0.0758836 9.71695 0.00113305 9.90512 0.00113305C11.7862 0.00319882 13.5896 0.751368 14.9197 2.08149C16.2498 3.41161 16.9979 5.21505 17 7.09612C17 7.28429 16.9253 7.46476 16.7922 7.59781C16.6591 7.73087 16.4787 7.80562 16.2905 7.80562C16.1023 7.80562 15.9219 7.73087 15.7888 7.59781C15.6558 7.46476 15.581 7.28429 15.581 7.09612C15.5793 5.59127 14.9808 4.14854 13.9167 3.08446C12.8526 2.02037 11.4099 1.42182 9.90512 1.42013C9.71695 1.42013 9.53649 1.34538 9.40343 1.21232C9.27038 1.07927 9.19563 0.898803 9.19563 0.710632ZM9.90512 4.25813C10.6578 4.25813 11.3796 4.55713 11.9118 5.08935C12.4441 5.62158 12.7431 6.34344 12.7431 7.09612C12.7431 7.28429 12.8178 7.46476 12.9509 7.59781C13.0839 7.73087 13.2644 7.80562 13.4526 7.80562C13.6407 7.80562 13.8212 7.73087 13.9542 7.59781C14.0873 7.46476 14.162 7.28429 14.162 7.09612C14.1609 5.96744 13.7121 4.88531 12.914 4.08722C12.1159 3.28912 11.0338 2.84026 9.90512 2.83913C9.71695 2.83913 9.53649 2.91388 9.40343 3.04694C9.27038 3.17999 9.19563 3.36046 9.19563 3.54863C9.19563 3.7368 9.27038 3.91726 9.40343 4.05032C9.53649 4.18337 9.71695 4.25813 9.90512 4.25813ZM16.3565 11.8774C16.7677 12.2897 16.9985 12.8482 16.9985 13.4305C16.9985 14.0128 16.7677 14.5713 16.3565 14.9836L15.7109 15.7279C9.90015 21.2911 -4.23996 7.1543 1.23729 1.32506L2.05321 0.615559C2.46596 0.215882 3.01948 -0.00521762 3.594 9.35187e-05C4.16853 0.00540466 4.71786 0.2367 5.12316 0.643939C5.14516 0.665933 6.45984 2.3737 6.45984 2.3737C6.84994 2.78352 7.06709 3.32792 7.06617 3.89373C7.06524 4.45954 6.84631 5.00322 6.45487 5.41177L5.63329 6.4448C6.08796 7.54957 6.75645 8.55361 7.60035 9.39922C8.44425 10.2448 9.44692 10.9154 10.5507 11.3723L11.5901 10.5457C11.9987 10.1546 12.5423 9.93589 13.108 9.93509C13.6736 9.9343 14.2178 10.1515 14.6275 10.5414C14.6275 10.5414 16.3345 11.8554 16.3565 11.8774ZM15.3802 12.909C15.3802 12.909 13.6824 11.6029 13.6604 11.5809C13.5143 11.4359 13.3168 11.3546 13.1109 11.3546C12.9051 11.3546 12.7076 11.4359 12.5614 11.5809C12.5423 11.6007 11.1112 12.7409 11.1112 12.7409C11.0148 12.8177 10.9 12.868 10.7782 12.8869C10.6564 12.9058 10.5318 12.8926 10.4167 12.8487C8.98665 12.3163 7.68778 11.4828 6.608 10.4046C5.52823 9.32637 4.69279 8.02871 4.15826 6.59947C4.11086 6.48273 4.09541 6.35547 4.11349 6.23077C4.13157 6.10608 4.18253 5.98845 4.26113 5.88997C4.26113 5.88997 5.40128 4.4582 5.42044 4.43976C5.56536 4.29359 5.64668 4.09609 5.64668 3.89025C5.64668 3.68441 5.56536 3.48691 5.42044 3.34074C5.39844 3.31946 4.09228 1.62021 4.09228 1.62021C3.94392 1.48718 3.7503 1.41594 3.55111 1.42109C3.35192 1.42623 3.16224 1.50737 3.02095 1.64788L2.20504 2.35738C-1.7979 7.17062 10.4557 18.7447 14.6736 14.7587L15.3199 14.0137C15.4714 13.8734 15.5624 13.6797 15.5736 13.4736C15.5849 13.2674 15.5155 13.065 15.3802 12.909Z" fill="#001A24"/>
</svg>
