<svg width="18" height="13" viewBox="0 0 18 13" fill="none" xmlns="http://www.w3.org/2000/svg">
<path d="M0.75 1.52941H17.25C17.4489 1.52941 17.6397 1.44884 17.7803 1.30543C17.921 1.16202 18 0.967518 18 0.764706C18 0.561893 17.921 0.367387 17.7803 0.223977C17.6397 0.0805671 17.4489 0 17.25 0H0.75C0.551088 0 0.360322 0.0805671 0.21967 0.223977C0.0790176 0.367387 0 0.561893 0 0.764706C0 0.967518 0.0790176 1.16202 0.21967 1.30543C0.360322 1.44884 0.551088 1.52941 0.75 1.52941Z" fill="#001A24"/>
<path d="M0.75 5.35294H11.25C11.4489 5.35294 11.6397 5.27237 11.7803 5.12896C11.921 4.98555 12 4.79105 12 4.58823C12 4.38542 11.921 4.19092 11.7803 4.04751C11.6397 3.9041 11.4489 3.82353 11.25 3.82353H0.75C0.551088 3.82353 0.360322 3.9041 0.21967 4.04751C0.0790176 4.19092 0 4.38542 0 4.58823C0 4.79105 0.0790176 4.98555 0.21967 5.12896C0.360322 5.27237 0.551088 5.35294 0.75 5.35294Z" fill="#001A24"/>
<path d="M11.25 11.4706H0.75C0.551088 11.4706 0.360322 11.5512 0.21967 11.6946C0.0790176 11.838 0 12.0325 0 12.2353C0 12.4381 0.0790176 12.6326 0.21967 12.776C0.360322 12.9194 0.551088 13 0.75 13H11.25C11.4489 13 11.6397 12.9194 11.7803 12.776C11.921 12.6326 12 12.4381 12 12.2353C12 12.0325 11.921 11.838 11.7803 11.6946C11.6397 11.5512 11.4489 11.4706 11.25 11.4706Z" fill="#001A24"/>
<path d="M17.25 7.64706H0.75C0.551088 7.64706 0.360322 7.72763 0.21967 7.87104C0.0790176 8.01445 0 8.20895 0 8.41176C0 8.61458 0.0790176 8.80908 0.21967 8.95249C0.360322 9.0959 0.551088 9.17647 0.75 9.17647H17.25C17.4489 9.17647 17.6397 9.0959 17.7803 8.95249C17.921 8.80908 18 8.61458 18 8.41176C18 8.20895 17.921 8.01445 17.7803 7.87104C17.6397 7.72763 17.4489 7.64706 17.25 7.64706Z" fill="#001A24"/>
</svg>
