<svg width="13" height="18" viewBox="0 0 13 18" fill="none" xmlns="http://www.w3.org/2000/svg">
<path d="M6.5 9C7.35705 9 8.19486 8.73608 8.90747 8.24161C9.62008 7.74715 10.1755 7.04434 10.5035 6.22208C10.8315 5.39981 10.9173 4.49501 10.7501 3.6221C10.5829 2.74918 10.1702 1.94736 9.56413 1.31802C8.9581 0.688685 8.18598 0.260102 7.34539 0.0864683C6.50481 -0.0871652 5.63352 0.0019498 4.84171 0.342544C4.04989 0.683138 3.37312 1.25991 2.89697 1.99994C2.42081 2.73996 2.16667 3.60999 2.16667 4.5C2.16781 5.69311 2.62473 6.83701 3.43714 7.68067C4.24955 8.52432 5.35108 8.99881 6.5 9ZM6.5 1.5C7.07137 1.5 7.62991 1.67595 8.10498 2.00559C8.58006 2.33524 8.95033 2.80377 9.16899 3.35195C9.38764 3.90013 9.44485 4.50333 9.33338 5.08527C9.22191 5.66722 8.94677 6.20176 8.54275 6.62132C8.13874 7.04088 7.62398 7.3266 7.06359 7.44236C6.50321 7.55811 5.92235 7.4987 5.39447 7.27164C4.86659 7.04458 4.41541 6.66006 4.09798 6.16671C3.78054 5.67336 3.61111 5.09335 3.61111 4.5C3.61111 3.70435 3.91548 2.94129 4.45725 2.37868C4.99902 1.81607 5.73382 1.5 6.5 1.5Z" fill="#001A24"/>
<path d="M6.5 10.5C4.77668 10.502 3.12449 11.2138 1.90592 12.4792C0.687345 13.7447 0.00191162 15.4604 0 17.25C0 17.4489 0.076091 17.6397 0.211534 17.7803C0.346977 17.921 0.530677 18 0.722222 18C0.913768 18 1.09747 17.921 1.23291 17.7803C1.36835 17.6397 1.44444 17.4489 1.44444 17.25C1.44444 15.8576 1.97708 14.5223 2.92518 13.5377C3.87328 12.5531 5.15918 12 6.5 12C7.84082 12 9.12672 12.5531 10.0748 13.5377C11.0229 14.5223 11.5556 15.8576 11.5556 17.25C11.5556 17.4489 11.6316 17.6397 11.7671 17.7803C11.9025 17.921 12.0862 18 12.2778 18C12.4693 18 12.653 17.921 12.7885 17.7803C12.9239 17.6397 13 17.4489 13 17.25C12.9981 15.4604 12.3127 13.7447 11.0941 12.4792C9.87551 11.2138 8.22332 10.502 6.5 10.5Z" fill="#001A24"/>
</svg>
