<svg width="26" height="27" viewBox="0 0 26 27" fill="none" xmlns="http://www.w3.org/2000/svg">
<path d="M25.6961 25.095L19.2351 18.3855C23.0253 13.5718 22.34 6.47882 17.7046 2.54297C13.0691 -1.39288 6.23892 -0.681375 2.44879 4.13235C-1.34134 8.94608 -0.656087 16.039 3.97935 19.975C7.97207 23.3651 13.7119 23.3651 17.7046 19.975L24.1656 26.6845C24.5957 27.1157 25.2809 27.1034 25.6962 26.6568C26.1013 26.2212 26.1013 25.5306 25.6961 25.095ZM2.19981 11.2769C2.19981 6.3105 6.07677 2.28442 10.8593 2.28442C15.6417 2.28442 19.5187 6.3105 19.5187 11.2769C19.5187 16.2434 15.6417 20.2694 10.8593 20.2694C6.07901 20.2638 2.20519 16.241 2.19981 11.2769Z" fill="#B3B1B4"/>
</svg>
