<svg width="22" height="22" viewBox="0 0 22 22" fill="none" xmlns="http://www.w3.org/2000/svg">
<path d="M21.0252 0.975297C20.3997 0.350773 19.552 0 18.6681 0C17.7842 0 16.9365 0.350773 16.311 0.975297L1.34784 15.9388C0.919343 16.3649 0.57959 16.8717 0.348239 17.43C0.116887 17.9882 -0.00147017 18.5868 1.3783e-05 19.1911V21.0799C1.3783e-05 21.324 0.096944 21.558 0.269481 21.7305C0.442018 21.9031 0.676028 22 0.920032 22H2.80883C3.41306 22.0017 4.01163 21.8835 4.56989 21.6523C5.12814 21.4211 5.63499 21.0815 6.06109 20.653L21.0252 5.68865C21.6494 5.0632 22 4.21564 22 3.33197C22 2.44831 21.6494 1.60074 21.0252 0.975297ZM4.76019 19.3521C4.2413 19.8676 3.54021 20.1578 2.80883 20.1599H1.84005V19.1911C1.83912 18.8285 1.91011 18.4694 2.04893 18.1344C2.18774 17.7994 2.39161 17.4953 2.64875 17.2397L14.0045 5.88369L16.1206 7.99978L4.76019 19.3521ZM19.7234 4.38771L17.4178 6.69425L15.3018 4.58276L17.6082 2.27623C17.7472 2.13759 17.9121 2.02767 18.0935 1.95275C18.2749 1.87784 18.4693 1.83939 18.6656 1.8396C18.8619 1.83981 19.0562 1.87869 19.2374 1.954C19.4187 2.02931 19.5833 2.13959 19.722 2.27853C19.8606 2.41747 19.9705 2.58237 20.0454 2.76379C20.1204 2.94521 20.1588 3.13962 20.1586 3.3359C20.1584 3.53218 20.1195 3.7265 20.0442 3.90776C19.9689 4.08902 19.8586 4.25367 19.7197 4.39231L19.7234 4.38771Z" fill="#107ACC"/>
</svg>
