<svg width="20" height="22" viewBox="0 0 20 22" fill="none" xmlns="http://www.w3.org/2000/svg">
<path d="M19.871 4.125C19.871 3.36561 19.2644 2.75 18.5161 2.75H15.1055C14.5348 1.10675 13.0071 0.00558594 11.2903 0H8.58065C6.86386 0.00558594 5.33615 1.10675 4.76543 2.75H1.35484C0.606586 2.75 0 3.36561 0 4.125C0 4.88439 0.606586 5.5 1.35484 5.5H1.80646V16.9583C1.80646 19.7428 4.0306 22 6.77418 22H13.0967C15.8404 22 18.0645 19.7428 18.0645 16.9583V5.5H18.5161C19.2644 5.5 19.871 4.88439 19.871 4.125ZM15.3548 16.9583C15.3548 18.224 14.3439 19.25 13.0968 19.25H6.77418C5.5271 19.25 4.51614 18.224 4.51614 16.9583V5.5H15.3548V16.9583Z" fill="#107ACC"/>
</svg>
