<svg width="48" height="48" viewBox="0 0 48 48" fill="none" xmlns="http://www.w3.org/2000/svg">
<path d="M22.014 5.15664L22 36.0322C22 36.5626 22.2107 37.0713 22.5858 37.4464C22.9609 37.8214 23.4696 38.0321 24 38.0321C24.5304 38.0321 25.0391 37.8214 25.4142 37.4464C25.7893 37.0713 26 36.5626 26 36.0322L26.014 5.19064L31.838 11.0166C32.2131 11.3915 32.7217 11.6021 33.252 11.6021C33.7823 11.6021 34.2909 11.3915 34.666 11.0166C35.0409 10.6415 35.2516 10.1329 35.2516 9.60258C35.2516 9.07226 35.0409 8.56365 34.666 8.1886L28.244 1.75869C27.6868 1.20114 27.0252 0.758848 26.297 0.457084C25.5688 0.15532 24.7883 0 24 0C23.2117 0 22.4312 0.15532 21.703 0.457084C20.9748 0.758848 20.3132 1.20114 19.756 1.75869L13.334 8.1826C12.9591 8.55765 12.7484 9.06625 12.7484 9.59657C12.7484 10.1269 12.9591 10.6355 13.334 11.0106C13.7091 11.3855 14.2177 11.5961 14.748 11.5961C15.2783 11.5961 15.7869 11.3855 16.162 11.0106L22.014 5.15664Z" fill="#B3B1B4"/>
<path d="M44 34.0002V42.0001C44 42.5305 43.7893 43.0392 43.4142 43.4143C43.0391 43.7894 42.5304 44.0001 42 44.0001H6C5.46957 44.0001 4.96086 43.7894 4.58579 43.4143C4.21071 43.0392 4 42.5305 4 42.0001V34.0002C4 33.4698 3.78929 32.9611 3.41421 32.586C3.03914 32.2109 2.53043 32.0002 2 32.0002C1.46957 32.0002 0.960859 32.2109 0.585786 32.586C0.210714 32.9611 0 33.4698 0 34.0002V42.0001C0 43.5914 0.632141 45.1175 1.75736 46.2427C2.88258 47.3679 4.4087 48 6 48H42C43.5913 48 45.1174 47.3679 46.2426 46.2427C47.3679 45.1175 48 43.5914 48 42.0001V34.0002C48 33.4698 47.7893 32.9611 47.4142 32.586C47.0391 32.2109 46.5304 32.0002 46 32.0002C45.4696 32.0002 44.9609 32.2109 44.5858 32.586C44.2107 32.9611 44 33.4698 44 34.0002Z" fill="#B3B1B4"/>
</svg>
