<svg width="17" height="17" viewBox="0 0 17 17" fill="none" xmlns="http://www.w3.org/2000/svg">
<path d="M16.2467 0.753639C15.7634 0.271052 15.1083 0 14.4253 0C13.7424 0 13.0873 0.271052 12.604 0.753639L1.04151 12.3163C0.710401 12.6456 0.447865 13.0372 0.269094 13.4686C0.0903221 13.9 -0.00113604 14.3625 1.06505e-05 14.8295V16.289C1.06505e-05 16.4776 0.0749112 16.6584 0.208235 16.7918C0.341559 16.9251 0.522385 17 0.710934 17H2.17046C2.63737 17.0013 3.0999 16.91 3.53128 16.7313C3.96265 16.5527 4.35431 16.2902 4.68357 15.9592L16.2467 4.39577C16.7291 3.91247 17 3.25754 17 2.57471C17 1.89187 16.7291 1.23694 16.2467 0.753639ZM3.67833 14.9539C3.27737 15.3522 2.73562 15.5765 2.17046 15.5781H1.42186V14.8295C1.42114 14.5493 1.476 14.2718 1.58326 14.0129C1.69053 13.7541 1.84807 13.5191 2.04676 13.3216L10.8217 4.54649L12.4568 6.18165L3.67833 14.9539ZM15.2408 3.39051L13.4592 5.17283L11.8241 3.54123L13.6064 1.7589C13.7137 1.65177 13.8411 1.56684 13.9813 1.50895C14.1215 1.45106 14.2717 1.42134 14.4234 1.42151C14.5751 1.42167 14.7252 1.45171 14.8653 1.50991C15.0054 1.5681 15.1326 1.65332 15.2397 1.76068C15.3468 1.86805 15.4318 1.99546 15.4897 2.13565C15.5476 2.27585 15.5773 2.42607 15.5771 2.57774C15.5769 2.72941 15.5469 2.87957 15.4887 3.01963C15.4305 3.1597 15.3453 3.28693 15.2379 3.39406L15.2408 3.39051Z" fill="#001A24"/>
</svg>
