<svg width="112" height="112" viewBox="0 0 112 112" fill="none" xmlns="http://www.w3.org/2000/svg">
<g filter="url(#filter0_d_202_3218)">
<circle cx="52" cy="52" r="40" fill="#F14281"/>
</g>
<path d="M71 58.3337V66.2501C71 67.5099 70.4996 68.718 69.6088 69.6088C68.718 70.4996 67.5098 71 66.25 71H58.3333C56.1121 70.9977 53.9305 70.4114 52.0074 69.2998C50.0843 68.1882 48.4873 66.5905 47.3767 64.6668C48.5703 64.6583 49.7599 64.5267 50.9265 64.2742C51.815 65.3851 52.9421 66.2818 54.2242 66.898C55.5064 67.5141 56.9108 67.8338 58.3333 67.8334H66.25C66.6699 67.8334 67.0727 67.6666 67.3696 67.3697C67.6665 67.0728 67.8333 66.67 67.8333 66.2501V58.3337C67.833 56.9107 67.5123 55.506 66.895 54.2238C66.2777 52.9416 65.3798 51.8149 64.2677 50.927C64.5223 49.7606 64.656 48.5711 64.6667 47.3773C66.5903 48.4879 68.1881 50.0848 69.2997 52.0079C70.4114 53.9309 70.9977 56.1125 71 58.3337ZM61.4636 48.2813C61.6117 46.2415 61.3189 44.1937 60.6052 42.277C59.8914 40.3604 58.7735 38.6198 57.3273 37.1736C55.881 35.7274 54.1404 34.6095 52.2237 33.8958C50.307 33.1821 48.2592 32.8893 46.2192 33.0374C42.6044 33.4502 39.2651 35.1704 36.8304 37.874C34.3956 40.5775 33.0333 44.078 33 47.7161V55.6959C33 59.7048 35.3861 61.5002 37.75 61.5002H46.775C50.4148 61.4689 53.9174 60.1076 56.623 57.6727C59.3286 55.2379 61.0502 51.8976 61.4636 48.2813ZM55.0875 39.4149C56.2116 40.5414 57.0805 41.8962 57.6356 43.3877C58.1907 44.8791 58.4189 46.4724 58.3048 48.0597C57.9669 50.8838 56.6083 53.4869 54.4848 55.3791C52.3612 57.2714 49.6193 58.3221 46.775 58.3337H37.75C36.2807 58.3337 36.1667 56.315 36.1667 55.6959V47.7161C36.1799 44.8731 37.2317 42.1329 39.1242 40.0113C41.0167 37.8896 43.6194 36.5328 46.4425 36.1961C46.7053 36.1771 46.9682 36.1676 47.231 36.1676C48.6897 36.1662 50.1343 36.4523 51.4824 37.0095C52.8304 37.5667 54.0555 38.3841 55.0875 39.4149Z" fill="white"/>
<defs>
<filter id="filter0_d_202_3218" x="0" y="0" width="112" height="112" filterUnits="userSpaceOnUse" color-interpolation-filters="sRGB">
<feFlood flood-opacity="0" result="BackgroundImageFix"/>
<feColorMatrix in="SourceAlpha" type="matrix" values="0 0 0 0 0 0 0 0 0 0 0 0 0 0 0 0 0 0 127 0" result="hardAlpha"/>
<feOffset dx="4" dy="4"/>
<feGaussianBlur stdDeviation="8"/>
<feComposite in2="hardAlpha" operator="out"/>
<feColorMatrix type="matrix" values="0 0 0 0 0 0 0 0 0 0 0 0 0 0 0 0 0 0 0.06 0"/>
<feBlend mode="normal" in2="BackgroundImageFix" result="effect1_dropShadow_202_3218"/>
<feBlend mode="normal" in="SourceGraphic" in2="effect1_dropShadow_202_3218" result="shape"/>
</filter>
</defs>
</svg>
