<svg width="112" height="112" viewBox="0 0 112 112" fill="none" xmlns="http://www.w3.org/2000/svg">
<g filter="url(#filter0_d_181_8201)">
<circle cx="52" cy="52" r="40" fill="#F14281"/>
</g>
<path d="M69.4877 34.6846C68.3725 33.6059 66.861 33 65.2851 33C63.7091 33 62.1976 33.6059 61.0824 34.6846L34.4032 60.5306C33.6392 61.2666 33.0334 62.142 32.6209 63.1063C32.2084 64.0706 31.9974 65.1045 32 66.1483V69.4108C32 69.8323 32.1729 70.2365 32.4805 70.5345C32.7881 70.8325 33.2054 71 33.6404 71H37.0081C38.0855 71.0029 39.1527 70.7988 40.1481 70.3995C41.1434 70.0001 42.0471 69.4134 42.8069 68.6734L69.4877 42.8258C70.6007 41.7455 71.2258 40.2816 71.2258 38.7552C71.2258 37.2289 70.6007 35.7649 69.4877 34.6846ZM40.4874 66.4264C39.5622 67.3167 38.3122 67.818 37.0081 67.8217H35.2808V66.1483C35.2791 65.522 35.4057 64.9016 35.6532 64.3231C35.9007 63.7445 36.2642 63.2192 36.7227 62.7777L56.9699 43.1627L60.7428 46.8178L40.4874 66.4264ZM67.1666 40.5788L63.0558 44.5628L59.2829 40.9157L63.3953 36.9317C63.6431 36.6922 63.9371 36.5023 64.2605 36.3729C64.584 36.2435 64.9306 36.1771 65.2806 36.1775C65.6305 36.1779 65.977 36.245 66.3002 36.3751C66.6234 36.5052 66.9169 36.6956 67.1641 36.9356C67.4113 37.1756 67.6073 37.4604 67.7409 37.7738C67.8744 38.0872 67.943 38.423 67.9426 38.762C67.9422 39.101 67.8729 39.4367 67.7386 39.7498C67.6044 40.0629 67.4077 40.3473 67.16 40.5867L67.1666 40.5788Z" fill="white"/>
<defs>
<filter id="filter0_d_181_8201" x="0" y="0" width="112" height="112" filterUnits="userSpaceOnUse" color-interpolation-filters="sRGB">
<feFlood flood-opacity="0" result="BackgroundImageFix"/>
<feColorMatrix in="SourceAlpha" type="matrix" values="0 0 0 0 0 0 0 0 0 0 0 0 0 0 0 0 0 0 127 0" result="hardAlpha"/>
<feOffset dx="4" dy="4"/>
<feGaussianBlur stdDeviation="8"/>
<feComposite in2="hardAlpha" operator="out"/>
<feColorMatrix type="matrix" values="0 0 0 0 0 0 0 0 0 0 0 0 0 0 0 0 0 0 0.06 0"/>
<feBlend mode="normal" in2="BackgroundImageFix" result="effect1_dropShadow_181_8201"/>
<feBlend mode="normal" in="SourceGraphic" in2="effect1_dropShadow_181_8201" result="shape"/>
</filter>
</defs>
</svg>
