<svg width="20" height="20" viewBox="0 0 20 20" fill="none" xmlns="http://www.w3.org/2000/svg">
<path d="M9.86111 0C7.91077 0 6.00423 0.58649 4.38257 1.6853C2.76092 2.78412 1.497 4.3459 0.750637 6.17316C0.0042727 8.00043 -0.19101 10.0111 0.189483 11.9509C0.569976 13.8907 1.50916 15.6725 2.88826 17.0711C4.26736 18.4696 6.02444 19.422 7.93731 19.8078C9.85017 20.1937 11.8329 19.9957 13.6348 19.2388C15.4367 18.4819 16.9768 17.2002 18.0603 15.5557C19.1439 13.9112 19.7222 11.9778 19.7222 10C19.7194 7.34871 18.6796 4.80684 16.8308 2.9321C14.9821 1.05736 12.4756 0.00286757 9.86111 0ZM9.86111 18.3333C8.23583 18.3333 6.64704 17.8446 5.29566 16.9289C3.94429 16.0132 2.89102 14.7117 2.26905 13.189C1.64708 11.6663 1.48434 9.99075 1.80142 8.37425C2.1185 6.75774 2.90115 5.27288 4.0504 4.10744C5.19965 2.94201 6.66388 2.14833 8.25794 1.82679C9.852 1.50525 11.5043 1.67027 13.0059 2.301C14.5074 2.93173 15.7908 3.99984 16.6938 5.37025C17.5968 6.74066 18.0787 8.35182 18.0787 10C18.0763 12.2094 17.2098 14.3276 15.6692 15.8899C14.1286 17.4521 12.0398 18.3309 9.86111 18.3333Z" fill="#001A24"/>
<path d="M9.86111 8.33333H9.03935C8.82141 8.33333 8.61239 8.42113 8.45828 8.57741C8.30417 8.73369 8.21759 8.94565 8.21759 9.16666C8.21759 9.38768 8.30417 9.59964 8.45828 9.75592C8.61239 9.9122 8.82141 10 9.03935 10H9.86111V15C9.86111 15.221 9.94769 15.433 10.1018 15.5893C10.2559 15.7455 10.4649 15.8333 10.6829 15.8333C10.9008 15.8333 11.1098 15.7455 11.2639 15.5893C11.418 15.433 11.5046 15.221 11.5046 15V10C11.5046 9.55797 11.3315 9.13405 11.0233 8.82149C10.715 8.50892 10.297 8.33333 9.86111 8.33333Z" fill="#001A24"/>
<path d="M9.86111 6.66666C10.5419 6.66666 11.0937 6.10702 11.0937 5.41666C11.0937 4.72631 10.5419 4.16667 9.86111 4.16667C9.18034 4.16667 8.62847 4.72631 8.62847 5.41666C8.62847 6.10702 9.18034 6.66666 9.86111 6.66666Z" fill="#001A24"/>
</svg>
