<svg width="19" height="20" viewBox="0 0 19 20" fill="none" xmlns="http://www.w3.org/2000/svg">
<path d="M18.0822 3.75C18.0822 3.05965 17.5302 2.5 16.8493 2.5H13.7457C13.2264 1.00613 11.8362 0.00507812 10.274 0H7.80822C6.24598 0.00507812 4.85579 1.00613 4.33645 2.5H1.23287C0.551981 2.5 0 3.05965 0 3.75C0 4.44035 0.551981 5 1.23287 5H1.64385V15.4167C1.64385 17.948 3.66776 20 6.16437 20H11.9178C14.4144 20 16.4383 17.948 16.4383 15.4167V5H16.8493C17.5302 5 18.0822 4.44035 18.0822 3.75ZM13.9726 15.4167C13.9726 16.5673 13.0526 17.5 11.9178 17.5H6.16437C5.02955 17.5 4.1096 16.5673 4.1096 15.4167V5H13.9726V15.4167Z" fill="#F14281"/>
</svg>
