<svg width="22" height="17" viewBox="0 0 22 17" fill="none" xmlns="http://www.w3.org/2000/svg">
<path d="M21.3279 6.15238C19.9067 3.85479 16.6739 0 11 0C5.3261 0 2.0933 3.85479 0.672076 6.15238C0.232723 6.85776 0 7.67069 0 8.5C0 9.32932 0.232723 10.1422 0.672076 10.8476C2.0933 13.1452 5.3261 17 11 17C16.6739 17 19.9067 13.1452 21.3279 10.8476C21.7673 10.1422 22 9.32932 22 8.5C22 7.67069 21.7673 6.85776 21.3279 6.15238ZM19.7656 9.89529C18.545 11.8654 15.7823 15.1808 11 15.1808C6.21769 15.1808 3.45496 11.8654 2.23441 9.89529C1.97339 9.47602 1.83513 8.99288 1.83513 8.5C1.83513 8.00712 1.97339 7.52398 2.23441 7.10471C3.45496 5.13456 6.21769 1.81915 11 1.81915C15.7823 1.81915 18.545 5.13093 19.7656 7.10471C20.0266 7.52398 20.1649 8.00712 20.1649 8.5C20.1649 8.99288 20.0266 9.47602 19.7656 9.89529Z" fill="#107ACC"/>
<path d="M11 3.95211C10.0938 3.95211 9.20803 4.21884 8.45458 4.71857C7.70113 5.2183 7.11389 5.92858 6.76712 6.7596C6.42035 7.59062 6.32962 8.50505 6.5064 9.38725C6.68318 10.2695 7.11954 11.0798 7.76029 11.7158C8.40105 12.3519 9.21742 12.785 10.1062 12.9605C10.9949 13.136 11.9161 13.0459 12.7533 12.7017C13.5905 12.3575 14.3061 11.7746 14.8095 11.0267C15.3129 10.2788 15.5816 9.39949 15.5816 8.5C15.5802 7.29427 15.097 6.13834 14.2381 5.28575C13.3792 4.43317 12.2147 3.95356 11 3.95211ZM11 11.2287C10.4563 11.2287 9.92482 11.0687 9.47275 10.7689C9.02068 10.469 8.66834 10.0429 8.46027 9.54424C8.25221 9.04563 8.19777 8.49697 8.30384 7.96765C8.40991 7.43833 8.67172 6.95212 9.05618 6.5705C9.44063 6.18888 9.93045 5.92899 10.4637 5.8237C10.997 5.71841 11.5497 5.77245 12.052 5.97898C12.5543 6.18551 12.9836 6.53526 13.2857 6.984C13.5878 7.43274 13.749 7.96031 13.749 8.5C13.749 9.22371 13.4594 9.91777 12.9438 10.4295C12.4283 10.9412 11.7291 11.2287 11 11.2287Z" fill="#107ACC"/>
</svg>
