<svg width="42" height="52" viewBox="0 0 42 52" fill="none" xmlns="http://www.w3.org/2000/svg">
<path d="M7.34624 51.903C4.33197 51.3851 2.73218 49.1477 2.72765 45.4436L2.72597 44.0105L2.09496 43.9441C1.22206 43.8524 0.650006 43.4833 0.282116 42.7748L0 42.2314V27.7679L0.255753 27.2515C0.63479 26.4862 1.46246 26.0032 2.39784 26.0016L2.72597 26.0012L2.72765 15.5634C2.72933 4.10834 2.71842 4.33661 3.33604 3.07117C3.94032 1.833 5.20195 0.736511 6.55516 0.273432L7.21869 0.0463716L28.9255 0L42 13.0907L41.9985 30.0854C41.9969 44.5714 41.9754 47.1722 41.8506 47.7046C41.3916 49.663 40.0644 51.0862 38.0625 51.7667C37.4644 51.9699 8.48446 52.0987 7.34621 51.9031L7.34624 51.903ZM37.1617 48.5385C37.6892 48.3795 38.2533 47.8878 38.4772 47.3918C38.6562 46.9952 38.6639 46.3153 38.666 30.6994L38.6687 14.4204H34.864C30.048 14.4204 29.4748 14.2744 28.4585 12.7892C27.7937 11.8176 27.7649 11.5861 27.7649 7.22475V3.34389L7.60706 3.39847L7.11468 3.7048C6.75624 3.92779 6.54557 4.15891 6.3402 4.55447L6.05809 5.09783V25.9975L33.0653 26.0519L33.4692 26.2706C34.6838 26.9282 34.6302 26.5263 34.6302 34.9913C34.6302 43.4563 34.6837 43.0544 33.4692 43.7121L33.0653 43.9308L6.04391 43.9845L6.07627 45.5407C6.11553 47.4292 6.29793 47.8663 7.25751 48.3707L7.79752 48.6545H22.2875C32.8525 48.6545 36.8817 48.6231 37.1622 48.5386L37.1617 48.5385ZM18.1226 39.867C20.3544 39.4449 21.7198 38.0462 22.0259 35.8685C22.4096 33.1378 21.0489 31.1506 18.4254 30.6104C17.6047 30.4415 14.4348 30.4513 14.0084 30.6241C13.8437 30.6908 13.8317 31.01 13.8317 35.3002V39.9047L14.1093 39.947C14.8472 40.0595 17.3708 40.0091 18.1226 39.867ZM15.9519 32.2191L16.381 32.1734C18.4521 31.953 19.7884 33.1215 19.7884 35.1531C19.7884 37.0841 18.759 38.1913 16.8858 38.2752L15.9519 38.3171V32.2191ZM7.87494 36.5787L8.22314 36.6355C8.7483 36.7212 10.1818 36.4773 10.755 36.2045C13.1138 35.0823 13.0427 31.7358 10.6394 30.7629C10.0193 30.5119 6.75535 30.3963 6.03239 30.5997L5.75475 30.6778V39.9181H7.87494V36.5787ZM7.87494 33.581C7.87494 32.0594 7.85282 32.1 8.68263 32.0981C9.70254 32.0954 10.298 32.5866 10.298 33.4296C10.298 34.4301 9.69038 34.9405 8.49932 34.9405H7.87494V33.581ZM25.6442 36.1595H28.9759V34.4326H25.6442V32.2993H29.1857L29.1274 30.5216H23.4735L23.4209 39.9182H25.6441L25.6442 36.1595Z" fill="#107ACC"/>
</svg>
