<svg width="18" height="17" viewBox="0 0 18 17" fill="none" xmlns="http://www.w3.org/2000/svg">
<path d="M14.25 0H3.75C2.7558 0.00122698 1.80267 0.408681 1.09966 1.13299C0.396661 1.85729 0.00119089 2.83931 0 3.86364V13.1364C0.00119089 14.1607 0.396661 15.1427 1.09966 15.867C1.80267 16.5913 2.7558 16.9988 3.75 17H14.25C15.2442 16.9988 16.1973 16.5913 16.9003 15.867C17.6033 15.1427 17.9988 14.1607 18 13.1364V3.86364C17.9988 2.83931 17.6033 1.85729 16.9003 1.13299C16.1973 0.408681 15.2442 0.00122698 14.25 0ZM3.75 1.54545H14.25C14.6991 1.54636 15.1376 1.68572 15.5092 1.94558C15.8808 2.20544 16.1684 2.57391 16.335 3.00359L10.5915 8.92191C10.1688 9.35565 9.59656 9.59918 9 9.59918C8.40344 9.59918 7.83118 9.35565 7.4085 8.92191L1.665 3.00359C1.83161 2.57391 2.11921 2.20544 2.49079 1.94558C2.86236 1.68572 3.30091 1.54636 3.75 1.54545ZM14.25 15.4545H3.75C3.15326 15.4545 2.58097 15.2103 2.15901 14.7756C1.73705 14.3408 1.5 13.7512 1.5 13.1364V5.02273L6.348 10.0145C7.05197 10.738 8.00569 11.1443 9 11.1443C9.99431 11.1443 10.948 10.738 11.652 10.0145L16.5 5.02273V13.1364C16.5 13.7512 16.2629 14.3408 15.841 14.7756C15.419 15.2103 14.8467 15.4545 14.25 15.4545Z" fill="#001A24"/>
</svg>
