<svg width="19" height="20" viewBox="0 0 19 20" fill="none" xmlns="http://www.w3.org/2000/svg">
<path d="M9.5 0C7.62108 0 5.78435 0.58649 4.22209 1.6853C2.65982 2.78412 1.44218 4.3459 0.723149 6.17316C0.00411624 8.00043 -0.184015 10.0111 0.182544 11.9509C0.549104 13.8907 1.45389 15.6725 2.78249 17.0711C4.11109 18.4696 5.80383 19.422 7.64665 19.8078C9.48946 20.1937 11.3996 19.9957 13.1355 19.2388C14.8714 18.4819 16.3551 17.2002 17.399 15.5557C18.4428 13.9112 19 11.9778 19 10C18.9973 7.34871 17.9955 4.80684 16.2145 2.9321C14.4335 1.05736 12.0187 0.00286757 9.5 0ZM9.5 18.3333C7.93423 18.3333 6.40363 17.8446 5.10174 16.9289C3.79985 16.0132 2.78515 14.7117 2.18596 13.189C1.58676 11.6663 1.42999 9.99075 1.73545 8.37425C2.04092 6.75774 2.79491 5.27288 3.90207 4.10744C5.00924 2.94201 6.41986 2.14833 7.95554 1.82679C9.49122 1.50525 11.083 1.67027 12.5296 2.301C13.9762 2.93173 15.2126 3.99984 16.0825 5.37025C16.9524 6.74066 17.4167 8.35182 17.4167 10C17.4144 12.2094 16.5795 14.3276 15.0954 15.8899C13.6112 17.4521 11.5989 18.3309 9.5 18.3333Z" fill="#B3B1B4"/>
<path d="M9.5 5C9.29004 5 9.08867 5.0878 8.94021 5.24408C8.79174 5.40036 8.70833 5.61232 8.70833 5.83333V9.4375L6.03962 11.1975C5.86116 11.3149 5.73429 11.502 5.68692 11.7179C5.63956 11.9337 5.67559 12.1605 5.78708 12.3483C5.89857 12.5362 6.07639 12.6697 6.28142 12.7196C6.48646 12.7694 6.7019 12.7315 6.88037 12.6142L9.92037 10.6142C10.0352 10.5384 10.1297 10.4329 10.1947 10.3077C10.2597 10.1825 10.2931 10.0418 10.2917 9.89916V5.83333C10.2917 5.61232 10.2083 5.40036 10.0598 5.24408C9.91132 5.0878 9.70996 5 9.5 5Z" fill="#B3B1B4"/>
</svg>
