
<svg width="16" height="20" viewBox="0 0 16 20" fill="none" xmlns="http://www.w3.org/2000/svg">
<path d="M8 5.00124C7.37056 5.00124 6.75526 5.19671 6.2319 5.56295C5.70854 5.92919 5.30063 6.44975 5.05976 7.05878C4.81888 7.66781 4.75586 8.33798 4.87865 8.98453C5.00145 9.63107 5.30455 10.225 5.74963 10.6911C6.19472 11.1572 6.76178 11.4747 7.37913 11.6033C7.99647 11.7319 8.63636 11.6659 9.21789 11.4136C9.79941 11.1613 10.2965 10.7341 10.6461 10.186C10.9958 9.63791 11.1825 8.99349 11.1825 8.33428C11.1825 7.4503 10.8472 6.60253 10.2504 5.97746C9.65353 5.35239 8.84405 5.00124 8 5.00124ZM8 10.0008C7.68528 10.0008 7.37763 9.90306 7.11595 9.71994C6.85427 9.53682 6.65032 9.27655 6.52988 8.97203C6.40944 8.66751 6.37793 8.33243 6.43933 8.00916C6.50073 7.68588 6.65228 7.38894 6.87482 7.15587C7.09736 6.9228 7.38089 6.76408 7.68956 6.69978C7.99823 6.63548 8.31818 6.66848 8.60894 6.79461C8.89971 6.92075 9.14822 7.13435 9.32307 7.40841C9.49792 7.68247 9.59125 8.00467 9.59125 8.33428C9.59125 8.77627 9.4236 9.20016 9.12518 9.51269C8.82676 9.82522 8.42202 10.0008 8 10.0008Z" fill="#B3B1B4"/>
<path d="M8 19.9999C7.33004 20.0035 6.66901 19.839 6.07225 19.52C5.4755 19.2011 4.96039 18.737 4.57006 18.1668C1.53794 13.7863 0 10.4933 0 8.37844C0 6.15634 0.842854 4.02525 2.34315 2.45399C3.84344 0.882726 5.87827 0 8 0C10.1217 0 12.1566 0.882726 13.6569 2.45399C15.1571 4.02525 16 6.15634 16 8.37844C16 10.4933 14.4621 13.7863 11.4299 18.1668C11.0396 18.737 10.5245 19.2011 9.92774 19.52C9.33099 19.839 8.66996 20.0035 8 19.9999ZM8 1.81901C6.33907 1.82099 4.74671 2.51289 3.57225 3.7429C2.39779 4.97292 1.73715 6.64061 1.73526 8.38011C1.73526 10.055 3.24137 13.1522 5.97514 17.101C6.20722 17.4358 6.51168 17.7083 6.86362 17.8962C7.21556 18.0841 7.60497 18.182 8 18.182C8.39503 18.182 8.78444 18.0841 9.13638 17.8962C9.48832 17.7083 9.79278 17.4358 10.0249 17.101C12.7586 13.1522 14.2647 10.055 14.2647 8.38011C14.2628 6.64061 13.6022 4.97292 12.4278 3.7429C11.2533 2.51289 9.66093 1.82099 8 1.81901Z" fill="#B3B1B4"/>
</svg>










