<svg width="18" height="20" viewBox="0 0 18 20" fill="none" xmlns="http://www.w3.org/2000/svg">
<path d="M5.48927 7.71373C5.80927 8.03955 5.80927 8.56703 5.48927 8.89202C5.16927 9.21784 4.65122 9.21784 4.33204 8.89202C4.01204 8.5662 4.01204 8.03872 4.33204 7.71373C4.65204 7.3879 5.17009 7.3879 5.48927 7.71373ZM16.8259 12.7844L16.3635 13.2552C16.3414 14.2827 15.9502 15.3027 15.189 16.0876L12.5971 18.7609C11.8254 19.5567 10.7958 19.9967 9.69752 20H9.68361C8.59103 20 7.56393 19.5667 6.79136 18.78L0.722045 12.6527C0.19008 12.1119 -0.0669001 11.3678 0.0149406 10.6086L0.641023 4.84548C0.682761 4.4655 0.971659 4.16301 1.34322 4.11134L6.98123 3.32637C7.74398 3.22304 8.51165 3.48719 9.05016 4.03551L15.1678 10.212C15.4845 10.5345 15.7382 10.8978 15.9297 11.2853C16.5942 10.3136 16.5009 8.95619 15.6498 8.08955L9.43727 1.91891C9.24985 1.72808 8.99124 1.63975 8.7408 1.67559L3.10279 2.46056C2.65349 2.52222 2.24183 2.20307 2.18045 1.74808C2.11989 1.29226 2.43334 0.872278 2.88019 0.80978L8.51902 0.0239714C9.27277 -0.0851918 10.0486 0.183133 10.588 0.733949L16.7988 6.90459C18.3915 8.52537 18.4005 11.1603 16.825 12.7852L16.8259 12.7844ZM14.0122 11.3928L7.89457 5.21631C7.71207 5.03048 7.4559 4.94465 7.20138 4.97715L2.19682 5.67462L1.64112 10.7911C1.61411 11.0436 1.69922 11.2919 1.876 11.4711L7.94531 17.5984C8.41099 18.0734 9.02725 18.3326 9.68279 18.3326H9.69098C10.3506 18.3309 10.9685 18.0667 11.4309 17.5884L14.0228 14.9152C14.9681 13.9402 14.9632 12.3594 14.0114 11.3911L14.0122 11.3928Z" fill="#B3B1B4"/>
</svg>
