<svg width="19" height="20" viewBox="0 0 19 20" fill="none" xmlns="http://www.w3.org/2000/svg">
<path d="M15.0417 3.33333H14.1708C13.9871 2.39284 13.5009 1.54779 12.7943 0.940598C12.0877 0.333408 11.2038 0.0012121 10.2917 0H8.70833C7.79617 0.0012121 6.91229 0.333408 6.20568 0.940598C5.49906 1.54779 5.01291 2.39284 4.82917 3.33333H3.95833C2.9089 3.33466 1.90282 3.77407 1.16076 4.55518C0.418698 5.3363 0.00125705 6.39534 0 7.5V15.8333C0.00125705 16.938 0.418698 17.997 1.16076 18.7782C1.90282 19.5593 2.9089 19.9987 3.95833 20H15.0417C16.0911 19.9987 17.0972 19.5593 17.8392 18.7782C18.5813 17.997 18.9987 16.938 19 15.8333V7.5C18.9987 6.39534 18.5813 5.3363 17.8392 4.55518C17.0972 3.77407 16.0911 3.33466 15.0417 3.33333ZM8.70833 1.66667H10.2917C10.7811 1.6688 11.258 1.83007 11.6571 2.12841C12.0561 2.42674 12.3579 2.84758 12.521 3.33333H6.479C6.64215 2.84758 6.94389 2.42674 7.34295 2.12841C7.742 1.83007 8.21888 1.6688 8.70833 1.66667ZM3.95833 5H15.0417C15.6716 5 16.2756 5.26339 16.721 5.73223C17.1664 6.20107 17.4167 6.83696 17.4167 7.5V10H1.58333V7.5C1.58333 6.83696 1.83356 6.20107 2.27895 5.73223C2.72435 5.26339 3.32844 5 3.95833 5ZM15.0417 18.3333H3.95833C3.32844 18.3333 2.72435 18.0699 2.27895 17.6011C1.83356 17.1323 1.58333 16.4964 1.58333 15.8333V11.6667H8.70833V12.5C8.70833 12.721 8.79174 12.933 8.94021 13.0893C9.08867 13.2455 9.29004 13.3333 9.5 13.3333C9.70996 13.3333 9.91133 13.2455 10.0598 13.0893C10.2083 12.933 10.2917 12.721 10.2917 12.5V11.6667H17.4167V15.8333C17.4167 16.4964 17.1664 17.1323 16.721 17.6011C16.2756 18.0699 15.6716 18.3333 15.0417 18.3333Z" fill="#B3B1B4"/>
</svg>
