<svg width="24" height="24" viewBox="0 0 18 12" fill="none" xmlns="http://www.w3.org/2000/svg">
<path d="M17.4501 4.34286C16.2873 2.72103 13.6423 0 9 0C4.35772 0 1.7127 2.72103 0.549881 4.34286C0.19041 4.84078 0 5.4146 0 6C0 6.5854 0.19041 7.15923 0.549881 7.65714C1.7127 9.27897 4.35772 12 9 12C13.6423 12 16.2873 9.27897 17.4501 7.65714C17.8096 7.15923 18 6.5854 18 6C18 5.4146 17.8096 4.84078 17.4501 4.34286ZM16.1718 6.98491C15.1732 8.3756 12.9128 10.7159 9 10.7159C5.0872 10.7159 2.82679 8.3756 1.82816 6.98491C1.61459 6.68895 1.50147 6.34791 1.50147 6C1.50147 5.65209 1.61459 5.31105 1.82816 5.01509C2.82679 3.6244 5.0872 1.28411 9 1.28411C12.9128 1.28411 15.1732 3.62183 16.1718 5.01509C16.3854 5.31105 16.4985 5.65209 16.4985 6C16.4985 6.34791 16.3854 6.68895 16.1718 6.98491Z" fill="#B3B1B4"/>
<path d="M9 2.78973C8.25859 2.78973 7.53384 2.97801 6.91738 3.33076C6.30093 3.68351 5.82046 4.18488 5.53674 4.77148C5.25301 5.35808 5.17878 6.00356 5.32342 6.62629C5.46806 7.24903 5.82508 7.82104 6.34933 8.27001C6.87358 8.71897 7.54152 9.02472 8.26868 9.14859C8.99584 9.27246 9.74956 9.20889 10.4345 8.96591C11.1195 8.72293 11.705 8.31146 12.1169 7.78353C12.5288 7.25561 12.7486 6.63493 12.7486 6C12.7474 5.1489 12.3521 4.33294 11.6494 3.73112C10.9466 3.1293 9.99383 2.79075 9 2.78973ZM9 7.92617C8.55516 7.92617 8.1203 7.8132 7.75043 7.60155C7.38056 7.3899 7.09228 7.08907 6.92204 6.73711C6.75181 6.38515 6.70727 5.99786 6.79405 5.62422C6.88084 5.25059 7.09505 4.90738 7.4096 4.638C7.72415 4.36862 8.12491 4.18517 8.56121 4.11085C8.99751 4.03653 9.44974 4.07467 9.86072 4.22046C10.2717 4.36624 10.623 4.61313 10.8701 4.92988C11.1173 5.24664 11.2492 5.61904 11.2492 6C11.2492 6.51085 11.0122 7.00078 10.5904 7.362C10.1686 7.72323 9.59652 7.92617 9 7.92617Z" fill="#B3B1B4"/>
</svg>
