<svg width="18" height="17" viewBox="0 0 18 17" fill="none" xmlns="http://www.w3.org/2000/svg">
<path d="M14.25 0H3.75C2.7558 0.00119168 1.80267 0.396923 1.09966 1.10039C0.396661 1.80386 0.00119089 2.75762 0 3.75247V12.7584C0.00119089 13.7533 0.396661 14.707 1.09966 15.4105C1.80267 16.114 2.7558 16.5097 3.75 16.5109H14.25C15.2442 16.5097 16.1973 16.114 16.9003 15.4105C17.6033 14.707 17.9988 13.7533 18 12.7584V3.75247C17.9988 2.75762 17.6033 1.80386 16.9003 1.10039C16.1973 0.396923 15.2442 0.00119168 14.25 0ZM3.75 1.50099H14.25C14.6991 1.50187 15.1376 1.63721 15.5092 1.8896C15.8808 2.14198 16.1684 2.49986 16.335 2.91717L10.5915 8.66521C10.1688 9.08647 9.59656 9.32299 9 9.32299C8.40344 9.32299 7.83118 9.08647 7.4085 8.66521L1.665 2.91717C1.83161 2.49986 2.11921 2.14198 2.49079 1.8896C2.86236 1.63721 3.30091 1.50187 3.75 1.50099ZM14.25 15.0099H3.75C3.15326 15.0099 2.58097 14.7727 2.15901 14.3504C1.73705 13.9282 1.5 13.3555 1.5 12.7584V4.87821L6.348 9.72641C7.05197 10.4291 8.00569 10.8237 9 10.8237C9.99431 10.8237 10.948 10.4291 11.652 9.72641L16.5 4.87821V12.7584C16.5 13.3555 16.2629 13.9282 15.841 14.3504C15.419 14.7727 14.8467 15.0099 14.25 15.0099Z" fill="#142157"/>
</svg>
