<svg width="18" height="18" viewBox="0 0 18 18" fill="none" xmlns="http://www.w3.org/2000/svg">
<path d="M9.72069 0.751693C9.72069 0.552649 9.79971 0.361758 9.94036 0.221013C10.081 0.0802682 10.2718 0.00119851 10.4707 0.00119851C12.4591 0.00338365 14.3655 0.794782 15.7716 2.20176C17.1776 3.60873 17.9685 5.51638 17.9707 7.50614C17.9707 7.70518 17.8917 7.89607 17.751 8.03682C17.6104 8.17756 17.4196 8.25663 17.2207 8.25663C17.0218 8.25663 16.831 8.17756 16.6904 8.03682C16.5497 7.89607 16.4707 7.70518 16.4707 7.50614C16.4689 5.91434 15.8362 4.38825 14.7114 3.26268C13.5865 2.13711 12.0614 1.50397 10.4707 1.50219C10.2718 1.50219 10.081 1.42312 9.94036 1.28237C9.79971 1.14163 9.72069 0.950736 9.72069 0.751693ZM10.4707 4.50416C11.2663 4.50416 12.0294 4.82044 12.592 5.38342C13.1546 5.9464 13.4707 6.70997 13.4707 7.50614C13.4707 7.70518 13.5497 7.89607 13.6904 8.03682C13.831 8.17756 14.0218 8.25663 14.2207 8.25663C14.4196 8.25663 14.6104 8.17756 14.751 8.03682C14.8917 7.89607 14.9707 7.70518 14.9707 7.50614C14.9695 6.31225 14.495 5.16759 13.6514 4.32338C12.8077 3.47917 11.6638 3.00437 10.4707 3.00318C10.2718 3.00318 10.081 3.08224 9.94036 3.22299C9.79971 3.36373 9.72069 3.55463 9.72069 3.75367C9.72069 3.95271 9.79971 4.1436 9.94036 4.28435C10.081 4.42509 10.2718 4.50416 10.4707 4.50416ZM17.2904 12.5637C17.7251 12.9998 17.9691 13.5906 17.9691 14.2066C17.9691 14.8225 17.7251 15.4133 17.2904 15.8494L16.6079 16.6367C10.4654 22.5213 -4.48206 7.56768 1.30794 1.40162L2.17044 0.651126C2.60677 0.228356 3.19189 -0.0055191 3.79922 9.89223e-05C4.40655 0.00571694 4.98725 0.250376 5.41569 0.681146C5.43894 0.704412 6.82869 2.51085 6.82869 2.51085C7.24106 2.94436 7.47062 3.52021 7.46964 4.11871C7.46867 4.71721 7.23723 5.29231 6.82344 5.72447L5.95494 6.81719C6.43558 7.98579 7.14224 9.04784 8.03432 9.94232C8.92641 10.8368 9.98633 11.5461 11.1532 12.0294L12.2519 11.155C12.6839 10.7413 13.2585 10.51 13.8564 10.5092C14.4543 10.5083 15.0296 10.738 15.4627 11.1505C15.4627 11.1505 17.2672 12.5405 17.2904 12.5637ZM16.2584 13.6549C16.2584 13.6549 14.4637 12.2733 14.4404 12.25C14.2859 12.0967 14.0772 12.0107 13.8596 12.0107C13.642 12.0107 13.4332 12.0967 13.2787 12.25C13.2584 12.271 11.7457 13.4771 11.7457 13.4771C11.6438 13.5583 11.5224 13.6115 11.3937 13.6315C11.2649 13.6515 11.1332 13.6376 11.0114 13.5911C9.49979 13.028 8.12675 12.1462 6.98532 11.0058C5.84389 9.86526 4.96074 8.49261 4.39569 6.98079C4.34559 6.8573 4.32926 6.72269 4.34837 6.59079C4.36748 6.45889 4.42135 6.33447 4.50444 6.2303C4.50444 6.2303 5.70969 4.7158 5.72994 4.69629C5.88314 4.54168 5.9691 4.33276 5.9691 4.11503C5.9691 3.8973 5.88314 3.68839 5.72994 3.53377C5.70669 3.51126 4.32594 1.71383 4.32594 1.71383C4.16912 1.57311 3.96444 1.49776 3.75388 1.5032C3.54331 1.50864 3.3428 1.59447 3.19344 1.7431L2.33094 2.49359C-1.90056 7.58494 11.0527 19.8278 15.5114 15.6115L16.1947 14.8235C16.3548 14.6751 16.451 14.4702 16.4629 14.2521C16.4748 14.034 16.4015 13.8199 16.2584 13.6549Z" fill="#142157"/>
</svg>
