<svg width="18" height="19" viewBox="0 0 18 19" fill="none" xmlns="http://www.w3.org/2000/svg">
<path d="M9 0C7.21997 0 5.47991 0.528189 3.99987 1.51777C2.51983 2.50736 1.36628 3.91389 0.685088 5.55951C0.00389957 7.20513 -0.17433 9.01592 0.172936 10.7629C0.520203 12.5099 1.37737 14.1146 2.63604 15.3741C3.89471 16.6336 5.49836 17.4913 7.24419 17.8388C8.99002 18.1863 10.7996 18.008 12.4442 17.3263C14.0887 16.6447 15.4943 15.4904 16.4832 14.0094C17.4722 12.5283 18 10.7871 18 9.00593C17.9974 6.6182 17.0484 4.32901 15.3611 2.64063C13.6738 0.952248 11.3862 0.00258251 9 0ZM15.4853 5.25346H13.0695C12.5287 3.99937 11.8167 2.82643 10.9538 1.76816C12.8636 2.2882 14.4917 3.54043 15.4853 5.25346ZM12.375 9.00593C12.3688 9.77004 12.2485 10.5289 12.018 11.2574H5.982C5.75149 10.5289 5.63116 9.77004 5.625 9.00593C5.63116 8.24182 5.75149 7.48293 5.982 6.75445H12.018C12.2485 7.48293 12.3688 8.24182 12.375 9.00593ZM6.5835 12.7584H11.4165C10.7799 14.016 9.96612 15.1756 9 16.2017C8.03353 15.1759 7.21968 14.0163 6.5835 12.7584ZM6.5835 5.25346C7.22008 3.99584 8.03389 2.83624 9 1.81019C9.96647 2.83595 10.7803 3.9956 11.4165 5.25346H6.5835ZM7.05 1.76816C6.18575 2.8262 5.47244 3.99916 4.9305 5.25346H2.51475C3.50914 3.53965 5.13875 2.28732 7.05 1.76816ZM1.84575 6.75445H4.425C4.23057 7.48929 4.12977 8.24578 4.125 9.00593C4.12977 9.76608 4.23057 10.5226 4.425 11.2574H1.84575C1.38476 9.79187 1.38476 8.21999 1.84575 6.75445ZM2.51475 12.7584H4.9305C5.47244 14.0127 6.18575 15.1857 7.05 16.2437C5.13875 15.7245 3.50914 14.4722 2.51475 12.7584ZM10.9538 16.2437C11.8167 15.1854 12.5287 14.0125 13.0695 12.7584H15.4853C14.4917 14.4714 12.8636 15.7237 10.9538 16.2437ZM16.1543 11.2574H13.575C13.7694 10.5226 13.8702 9.76608 13.875 9.00593C13.8702 8.24578 13.7694 7.48929 13.575 6.75445H16.1528C16.6137 8.21999 16.6137 9.79187 16.1528 11.2574H16.1543Z" fill="#142157"/>
</svg>
